<?xml version="1.0" standalone="no"?>
<!DOCTYPE svg PUBLIC "-//W3C//DTD SVG 20010904//EN"
 "http://www.w3.org/TR/2001/REC-SVG-20010904/DTD/svg10.dtd">
<svg version="1.0" xmlns="http://www.w3.org/2000/svg"
 width="1000.000000pt" height="1080.000000pt" viewBox="0 0 1000.000000 1080.000000"
 preserveAspectRatio="xMidYMid meet">
<metadata>
Created by potrace 1.16, written by Peter Selinger 2001-2019
</metadata>
<g transform="translate(0.000000,1080.000000) scale(0.100000,-0.100000)"
fill="#000000" stroke="none">
<path d="M3355 9909 c-355 -16 -670 -86 -900 -201 -68 -34 -213 -127 -263
-168 l-33 -27 -87 24 c-62 17 -125 26 -218 30 -116 5 -140 3 -202 -16 -126
-38 -204 -123 -233 -253 -18 -83 -18 -306 0 -378 32 -124 89 -207 170 -243 41
-18 43 -21 36 -50 -21 -102 -36 -218 -42 -331 l-6 -130 -77 -91 c-190 -226
-233 -394 -127 -496 31 -30 114 -67 176 -79 l52 -10 90 80 c108 95 219 176
349 256 106 64 390 205 401 198 20 -12 62 -146 66 -215 7 -99 -13 -161 -73
-228 -59 -66 -138 -103 -284 -135 -213 -47 -378 -44 -482 7 -26 13 -48 23 -48
21 0 -1 23 -41 51 -89 183 -311 311 -730 350 -1148 15 -164 6 -609 -15 -767
-26 -186 -64 -369 -101 -486 -32 -100 -37 -144 -13 -101 23 43 156 210 246
311 231 261 506 456 752 535 173 56 355 67 473 31 115 -36 219 -120 264 -214
9 -20 21 -36 26 -36 4 0 28 14 53 31 251 173 717 199 1067 60 170 -68 336
-167 480 -286 l68 -56 -7 -47 c-21 -153 -174 -416 -349 -601 -47 -51 -75 -89
-83 -116 -19 -68 -109 -156 -226 -224 -141 -81 -393 -164 -548 -181 -57 -6
-155 -20 -218 -30 -228 -38 -314 -44 -585 -44 -387 0 -685 38 -1066 134 -157
39 -204 48 -224 40 -112 -43 -300 41 -408 182 -107 139 -132 291 -67 405 29
51 106 113 141 113 10 0 20 4 23 9 4 5 -27 12 -67 16 -264 25 -420 -134 -422
-430 0 -104 7 -123 91 -226 125 -157 519 -436 832 -589 50 -25 91 -47 91 -50
0 -3 -11 -18 -24 -33 -21 -24 -47 -33 -166 -63 -160 -39 -161 -39 -221 -152
-51 -93 -78 -202 -78 -308 0 -196 40 -284 160 -355 36 -21 71 -43 78 -49 7 -6
17 -8 22 -5 6 3 10 2 10 -3 0 -6 21 -23 48 -38 26 -15 53 -33 59 -40 7 -7 39
-27 70 -45 32 -18 60 -36 63 -39 7 -9 168 -104 231 -135 152 -78 312 -124 479
-139 255 -24 503 -50 670 -71 340 -43 361 -45 580 -66 118 -11 328 -22 465
-26 242 -5 254 -5 380 20 72 15 209 47 305 72 323 83 400 88 730 50 163 -19
396 -19 478 0 34 8 84 26 110 39 51 26 165 133 272 255 36 41 73 84 84 95 10
12 23 28 30 36 32 43 184 175 243 213 112 71 192 100 327 117 41 5 85 15 96
22 48 29 63 128 36 230 -19 72 -24 84 -66 153 -56 93 -91 170 -97 214 l-5 39
-86 16 c-47 9 -89 19 -93 24 -4 4 -28 81 -54 172 -96 335 -228 672 -339 868
-20 35 -36 66 -36 68 0 2 39 -16 88 -40 115 -59 179 -83 276 -107 326 -78 588
89 603 386 4 69 1 86 -19 125 -30 59 -93 105 -181 132 -67 21 -90 23 -307 22
-202 0 -260 -4 -410 -27 -96 -15 -190 -30 -209 -33 -31 -7 -34 -5 -26 12 4 10
25 69 46 129 49 141 64 245 49 334 -28 160 -126 235 -328 248 l-96 6 64 -60
c243 -227 247 -603 9 -828 -115 -108 -240 -159 -394 -159 -258 0 -484 174
-550 424 -22 83 -19 224 6 306 57 187 191 323 375 380 73 23 97 26 192 23
l109 -4 -37 50 c-102 136 -148 313 -157 605 -4 143 -1 204 16 335 51 394 54
763 7 1065 l-23 155 34 38 c101 113 244 383 263 498 29 172 -6 317 -99 409
-61 61 -119 92 -214 117 -87 22 -264 13 -372 -19 l-80 -23 -90 74 c-430 356
-1002 548 -1720 576 -77 3 -176 7 -220 9 -44 1 -152 -1 -240 -5z m-440 -119
c-11 -5 -64 -27 -117 -50 -363 -155 -636 -400 -843 -753 -71 -123 -191 -363
-240 -482 -64 -155 -59 -120 16 107 113 344 248 577 440 764 189 184 370 291
664 395 75 27 125 38 80 19z m1785 -1872 c137 -76 257 -187 358 -328 52 -72
162 -283 162 -309 0 -20 -56 -54 -137 -82 -84 -30 -228 -36 -332 -15 -133 27
-182 50 -240 111 -69 73 -93 129 -98 235 -7 124 22 223 109 377 l41 71 41 -14
c22 -8 66 -29 96 -46z m2856 -2813 c100 -30 142 -88 124 -171 -14 -63 -33 -95
-76 -134 -124 -108 -340 -97 -589 30 -89 46 -229 133 -239 148 -3 5 16 30 42
55 l47 47 160 20 c88 11 180 21 205 24 84 8 275 -3 326 -19z"/>
<path d="M6974 5059 c-106 -18 -103 -26 9 -28 60 0 117 -5 127 -11 10 -5 36
-12 57 -14 21 -2 72 -20 113 -39 41 -20 78 -35 81 -34 3 1 13 -6 23 -15 10
-10 22 -18 27 -18 23 0 4 22 -61 70 -62 46 -71 50 -92 39 -20 -11 -22 -11 -10
3 15 19 13 21 -57 42 -58 17 -135 19 -217 5z"/>
<path d="M6175 5941 c-91 -23 -181 -95 -221 -177 -39 -80 -44 -187 -14 -268
28 -72 95 -147 165 -184 44 -24 61 -27 150 -27 89 0 105 3 151 27 67 36 138
115 164 186 36 93 19 229 -38 310 -7 11 -28 8 -110 -12 -55 -14 -104 -26 -107
-26 -4 0 -6 39 -4 88 l4 87 -55 2 c-30 1 -68 -2 -85 -6z"/>
<path d="M0 400 l0 -400 5000 0 5000 0 0 400 0 400 -5000 0 -5000 0 0 -400z
m1395 106 c25 -11 33 -19 29 -30 -7 -19 -5 -19 -40 -1 -36 18 -55 19 -78 2
-28 -21 -9 -45 49 -62 87 -25 108 -74 54 -127 -29 -29 -33 -30 -90 -25 -68 6
-72 8 -64 29 5 13 12 14 40 5 50 -15 100 1 100 33 0 16 -8 28 -25 36 -87 40
-105 51 -108 67 -14 70 53 106 133 73z m587 -48 l3 -62 36 32 c20 18 45 32 55
32 14 0 9 -9 -21 -40 l-39 -40 42 -60 c40 -57 41 -60 20 -60 -16 0 -32 14 -53
45 -16 25 -33 45 -37 45 -5 0 -8 -20 -8 -45 0 -38 -3 -45 -20 -45 -19 0 -20 7
-20 130 0 122 1 130 20 130 16 0 19 -8 22 -62z m-1353 -24 c12 -15 21 -40 21
-55 0 -29 0 -29 -65 -29 -72 0 -83 -12 -44 -51 17 -17 30 -20 65 -16 43 4 59
-5 28 -17 -45 -17 -106 3 -123 41 -45 98 56 206 118 127z m456 3 c20 -16 28
-35 32 -69 5 -42 3 -50 -25 -78 -41 -41 -83 -41 -124 0 -28 28 -30 36 -25 78
9 82 84 119 142 69z m622 8 c30 -21 44 -75 32 -120 -25 -88 -143 -88 -168 0
-20 72 20 135 84 135 17 0 40 -7 52 -15z"/>
<path d="M986 424 c-50 -50 -21 -144 44 -144 48 0 80 50 66 104 -13 53 -75 75
-110 40z"/>
</g>
</svg>
