<?xml version="1.0" standalone="yes"?>
<svg width="1000" height="1080">
<path style="fill:#ffffff; stroke:none;" d="M0 0L0 1000L1000 1000L1000 0L0 0z"/>
<path style="fill:#bc64ae; stroke:none;" d="M334 88L334 89L371 89C361.202 84.8886 344.649 88 334 88z"/>
<path style="fill:#e0aadb; stroke:none;" d="M318 89L318 90L323 90L318 89z"/>
<path style="fill:#9c298e; stroke:none;" d="M171 590L171 589C160.622 588.181 149.604 586.611 140 591.905C120.572 602.614 115.503 634.65 128.159 652C138.603 666.318 154.406 677.27 169 687C193.138 703.093 218.392 717.827 246 726.911C358.395 763.891 476.588 699.42 570.079 643.08C593.499 628.967 616.013 613.315 639.572 599.421C646.288 595.46 659.688 584.666 667.075 584.129C670.357 583.89 673.515 587.345 676.039 589.051C682.96 593.729 692.644 598.655 698 605C704.424 605.618 710.977 610.937 717 613.397C729.921 618.673 743.927 622.334 758 620.826C783.311 618.115 815.553 576.404 785 558.225C774.585 552.027 761.668 552 750 552C726.491 552 703.116 554.693 680 559C688.731 537.718 702.846 497.972 671 488.44C663.215 486.11 655.047 486 647 486L647 487C698.793 519.397 662.261 602.534 604 589.486C560.629 579.773 544.41 525.646 575.09 494.039C590.963 477.688 608.187 477.107 629 478C622.573 467.68 617.074 458.822 613.569 447C602.95 411.175 612.428 372.247 614.911 336C617.109 303.898 612.949 270.389 606.513 239C601.582 214.951 595.544 192.183 579.91 172.561C575.028 166.433 569.631 158.594 562 156L564 155C544.232 138.906 524.252 124.954 501 114.309C464.628 97.6572 425.391 92.6081 386 89.9105C311.555 84.8124 228.329 94.3564 184.09 163C164.807 192.919 160.936 224.609 157.941 259C157.408 265.128 151.653 269.462 148.001 274C138.952 285.244 126.745 301.576 133.228 316.999C136.816 325.534 151.862 333.072 161 329.691C166.526 327.646 171.529 321.487 176 317.754C184.766 310.434 194.261 303.778 204 297.811C281.635 250.248 381.607 247.154 464 285.782C504.853 304.934 524.411 348.095 533.12 390C542.42 434.753 542.468 482.9 535.439 528C533.384 541.185 534.022 555.397 529.075 568C520.251 590.478 506.127 605.798 491.264 624.17C486.746 629.754 485.473 636.614 479.96 641.829C457.6 662.982 425.965 668.171 397 672.3C381.665 674.486 366.534 677.847 351 678.911C305.091 682.054 258.227 674.481 214 662.884C203.197 660.052 192.369 663.934 182 659.208C155.913 647.317 132.894 603.211 171 590z"/>
<path style="fill:#c16faf; stroke:none;" d="M382 89L382 90L387 90L382 89z"/>
<path style="fill:#e4b0e1; stroke:none;" d="M387 89L387 90L392 90L387 89z"/>
<path style="fill:#cc87c6; stroke:none;" d="M310 90L310 91L314 91L310 90z"/>
<path style="fill:#ce93c3; stroke:none;" d="M397 90L397 91L403 91L397 90z"/>
<path style="fill:#e1c4e2; stroke:none;" d="M419 92L419 93L424 93L419 92z"/>
<path style="fill:#dab0d8; stroke:none;" d="M291.667 93.3333L292.333 93.6667L291.667 93.3333z"/>
<path style="fill:#cfbcd2; stroke:none;" d="M286.667 94.3333L287.333 94.6667L286.667 94.3333z"/>
<path style="fill:#c47aad; stroke:none;" d="M432 94L432 95L435 95L432 94z"/>
<path style="fill:#d67fc4; stroke:none;" d="M438.667 95.3333L439.333 95.6667L438.667 95.3333z"/>
<path style="fill:#d7a9cd; stroke:none;" d="M278.667 96.3333L279.333 96.6667L278.667 96.3333z"/>
<path style="fill:#c889be; stroke:none;" d="M443.667 96.3333L444.333 96.6667L443.667 96.3333z"/>
<path style="fill:#c978b3; stroke:none;" d="M275.667 97.3333L276.333 97.6667L275.667 97.3333z"/>
<path style="fill:#d48fc8; stroke:none;" d="M448.667 97.3333L449.333 97.6667L448.667 97.3333z"/>
<path style="fill:#d598c4; stroke:none;" d="M167 240L168 240C171.371 225.808 179.466 211.83 186.219 199C210.629 152.625 245.145 116.548 296 100C291.805 98.7596 287.036 101.309 283 102.667C271.71 106.468 260.305 110.995 250 117.012C215.294 137.274 191.665 167.674 177.576 205C173.378 216.123 168.042 228.056 167 240z"/>
<path style="fill:#d7a2d6; stroke:none;" d="M464.667 101.333L465.333 101.667L464.667 101.333z"/>
<path style="fill:#c594c3; stroke:none;" d="M173 122L173 123L189 123L173 122z"/>
<path style="fill:#c38ab7; stroke:none;" d="M168.667 123.333L169.333 123.667L168.667 123.333z"/>
<path style="fill:#8e2081; stroke:none;" d="M164 214C166.846 179.162 192.83 152.977 215 129C195.121 119.023 157.177 117.638 145.327 140C134.765 159.93 135.912 208.99 164 214z"/>
<path style="fill:#b46da5; stroke:none;" d="M192 123L192 124L195 124L192 123z"/>
<path style="fill:#b36ca8; stroke:none;" d="M198 124L198 125L201 125L198 124z"/>
<path style="fill:#bb8ab9; stroke:none;" d="M203.667 125.333L204.333 125.667L203.667 125.333z"/>
<path style="fill:#cf83cb; stroke:none;" d="M214.667 128.333L215.333 128.667L214.667 128.333z"/>
<path style="fill:#650a5a; stroke:none;" d="M169 179C172.865 173.881 176.064 168.38 179.54 163C181.917 159.32 184.467 155.765 186.715 152C188.397 149.184 191.997 144.691 191.538 141.228C190.644 134.487 178.47 137.965 175 139.709C162.498 145.991 153.151 171.209 169 179z"/>
<path style="fill:#b36ea7; stroke:none;" d="M142.333 146.667L142.667 147.333L142.333 146.667z"/>
<path style="fill:#c9a7cc; stroke:none;" d="M586 148L586 149L598 149L586 148z"/>
<path style="fill:#8e2081; stroke:none;" d="M562 155L562 156C569.856 160.076 577.94 169.14 582 177C585.473 174.628 588.733 171.113 593 170.282C615.55 165.895 618.418 199.826 615.184 214C613.599 220.95 606.583 226.247 605.89 233C605.217 239.569 607.579 248.523 609 255C616.742 251.359 621.186 242.116 625.397 235C637.003 215.385 648.318 187.094 633.211 166C618.079 144.869 583.603 144.916 562 155z"/>
<path style="fill:#cba9ca; stroke:none;" d="M604.667 149.333L605.333 149.667L604.667 149.333z"/>
<path style="fill:#c671b2; stroke:none;" d="M575 150L575 151L578 151L575 150z"/>
<path style="fill:#af73a6; stroke:none;" d="M571.667 151.333L572.333 151.667L571.667 151.333z"/>
<path style="fill:#c598c1; stroke:none;" d="M140 154L140 158L141 158L140 154z"/>
<path style="fill:#650a5a; stroke:none;" d="M605 231C619.725 219.704 620.895 192.505 610.363 178.004C605.502 171.311 590.08 164.73 584.828 175.094C582.627 179.437 588.829 186.327 590.822 190C597.958 203.153 600.556 216.975 605 231z"/>
<path style="fill:#bc88b6; stroke:none;" d="M140 179L140 182L141 182L140 179z"/>
<path style="fill:#a95299; stroke:none;" d="M639 180L639 184L640 184L639 180z"/>
<path style="fill:#b973af; stroke:none;" d="M141 185L141 188L142 188L141 185z"/>
<path style="fill:#d2b8d1; stroke:none;" d="M640 188L640 196L641 196L640 188z"/>
<path style="fill:#d49dd4; stroke:none;" d="M142.333 190.667L142.667 191.333L142.333 190.667z"/>
<path style="fill:#c594c3; stroke:none;" d="M639.333 200.667L639.667 201.333L639.333 200.667z"/>
<path style="fill:#c787c4; stroke:none;" d="M638 205L638 208L639 208L638 205z"/>
<path style="fill:#deb0de; stroke:none;" d="M161.333 219.667L161.667 220.333L161.333 219.667z"/>
<path style="fill:#d9a8d5; stroke:none;" d="M158 238L158 243L159 243L158 238z"/>
<path style="fill:#52134a; stroke:none;" d="M320 259L320 260L328 260L320 259z"/>
<path style="fill:#000000; stroke:none;" d="M163 333C169.728 354.26 196.594 357.024 215 352.321C247.179 344.098 280.704 316.819 281 281L324 278.089L424 289C422.655 298.11 419.405 306.637 419.04 316C418.021 342.154 431.01 373.68 455 386.138C472.996 395.483 505.891 389.619 515.095 410.001C528.464 439.607 524.711 490.125 485 494.816C461.481 497.594 438.857 483.314 415 487.616C403.657 489.661 395.773 496.033 388.71 504.714C385.355 508.838 380.263 518.051 374.003 517.468C368.584 516.964 362.263 508.524 358.255 505.076C350.352 498.277 338.62 491.109 328 490.104C305.217 487.948 295.045 501.513 276 510L276 511C302.884 506.371 328.371 491.278 352.996 513.184C358.07 517.698 361.485 523.278 365 529C373.902 524.572 381.321 518.82 391 515.745C425.007 504.943 460.555 510.646 492 526.37C506.48 533.611 517.917 545.733 532 553C534.85 541.433 534.899 529.735 536.286 518C540.686 480.75 542.12 440.072 535.615 403C533.228 389.398 532.342 367.683 523.66 356.336C521.078 352.963 516.851 356.363 514 357.677C506.22 361.264 495.653 364.512 487 363.7C480.141 363.056 473.539 361.845 467 359.667C461.616 357.874 457.171 355.932 453.004 351.957C428.902 328.963 446.764 306.404 456 282C432.961 277.529 411.347 267.223 388 263.324C341.863 255.62 296.375 259.378 252.001 274.029C249.773 274.764 246.501 275.611 245.816 278.225C244.816 282.042 248.868 288.308 249.964 292C252.298 299.861 251.789 307.605 248.004 315C234.092 342.178 187.051 343 163 333z"/>
<path style="fill:#6c2463; stroke:none;" d="M355 259L355 260L360 260L355 259z"/>
<path style="fill:#3b193a; stroke:none;" d="M372 261L372 262L376 262L372 261z"/>
<path style="fill:#d3afd5; stroke:none;" d="M610 261L610 264L611 264L610 261z"/>
<path style="fill:#511c54; stroke:none;" d="M296 262L296 263L299 263L296 262z"/>
<path style="fill:#5f2659; stroke:none;" d="M380 262L380 263L384 263L380 262z"/>
<path style="fill:#5f1550; stroke:none;" d="M290 263L290 264L293 264L290 263z"/>
<path style="fill:#56174e; stroke:none;" d="M285 264L285 265L288 265L285 264z"/>
<path style="fill:#571948; stroke:none;" d="M397 265L397 266L400 266L397 265z"/>
<path style="fill:#460f39; stroke:none;" d="M405 267L405 268L408 268L405 267z"/>
<path style="fill:#461544; stroke:none;" d="M269 268L269 269L272 269L269 268z"/>
<path style="fill:#c479ba; stroke:none;" d="M611 269L611 272L612 272L611 269z"/>
<path style="fill:#4c1745; stroke:none;" d="M256.667 272.333L257.333 272.667L256.667 272.333z"/>
<path style="fill:#c473b5; stroke:none;" d="M612 274L612 278L613 278L612 274z"/>
<path style="fill:#651e58; stroke:none;" d="M436.667 276.333L437.333 276.667L436.667 276.333z"/>
<path style="fill:#e9eef1; stroke:none;" d="M249 298C249.385 292.944 249.978 280.931 243.606 278.708C238.513 276.932 227.507 284.5 223 286.753C207.18 294.663 191.751 304.093 178 315.261C173.538 318.884 166.622 323.094 163.662 328.086C161.207 332.226 165.655 334.614 169.001 335.79C174.67 337.782 187.401 339.319 192.536 335.397C197.611 331.521 201.496 325.434 206.325 321.105C218.572 310.125 232.882 301.697 249 298z"/>
<path style="fill:#121212; stroke:none;" d="M281 281C280.194 320.06 237.089 353.351 200 354.961C188.852 355.444 180.093 345.557 170 346C180.523 371.276 191.491 394.995 197.338 422C209.443 477.914 203.504 535.203 189 590C196.509 583.887 201.969 574.391 208.272 567C225.654 546.614 250.26 519.718 277 512C277 508.481 284.746 505.681 287.667 503.667C299.897 495.232 314.059 485.684 330 490.333C339.724 493.169 349.971 498.424 357.667 505C361.748 508.488 367.728 517.268 373 518C379.659 518.925 383.089 512.404 386.667 508C393.235 499.916 399.053 493.202 409 489.333C442.657 476.244 494.213 517.755 516.5 474.667C525.462 457.341 522.291 434.531 517.167 417C515.101 409.934 513.414 401.878 506 398C500.501 395.124 494.735 396.861 489 395.667C471.388 391.998 453.393 388.809 440.333 374.833C426.942 360.502 417.096 334.584 419 315C419.844 306.319 423.774 297.574 424 289L325 278.089L281 281z"/>
<path style="fill:#e9eef1; stroke:none;" d="M444 307C462.743 314.892 473.444 320.999 481.5 341C483.167 345.138 487.106 361.083 480 362C489.09 365.815 503.24 362.3 512 358.792C515.416 357.425 521.13 355.375 521.292 350.96C521.491 345.53 516.076 337.531 513.397 333C504.106 317.289 493.393 303.206 478 293.004C473.4 289.955 463.061 282.152 457.185 283.789C450.376 285.685 445.743 300.987 444 307z"/>
<path style="fill:#bc65a9; stroke:none;" d="M613 283L613 288L614 288L613 283z"/>
<path style="fill:#6e6f71; stroke:none;" d="M247 284L248 285L247 284z"/>
<path style="fill:#85928b; stroke:none;" d="M454 285L455 286L454 285z"/>
<path style="fill:#6f7374; stroke:none;" d="M452 288L453 289L452 288z"/>
<path style="fill:#95999a; stroke:none;" d="M451 290L452 291L451 290z"/>
<path style="fill:#d5a1c7; stroke:none;" d="M614 291L614 296L615 296L614 291z"/>
<path style="fill:#ffffff; stroke:none;" d="M249 293L249 298C233.821 300.233 219.562 308.989 208.093 318.789C197.072 328.207 193.394 337 178 337L178 338C196.899 338 221.959 338.825 237.999 327.073C247.714 319.955 255.213 304.687 249 293z"/>
<path style="fill:#797b7a; stroke:none;" d="M250.333 293.667L250.667 294.333L250.333 293.667z"/>
<path style="fill:#c1c1c1; stroke:none;" d="M250.333 295.667L250.667 296.333L250.333 295.667z"/>
<path style="fill:#444444; stroke:none;" d="M251 298L251 304L252 304L251 298z"/>
<path style="fill:#b45da4; stroke:none;" d="M131 303L131 312L132 312L131 303z"/>
<path style="fill:#939798; stroke:none;" d="M444.333 304.667L444.667 305.333L444.333 304.667z"/>
<path style="fill:#d4a6cd; stroke:none;" d="M615 305L615 325L616 325L615 305z"/>
<path style="fill:#838383; stroke:none;" d="M250.333 307.667L250.667 308.333L250.333 307.667z"/>
<path style="fill:#ffffff; stroke:none;" d="M444 307C432.921 336.575 452.453 361.747 483 362C482.778 356.306 484.911 350.747 483.586 345C478.855 324.492 463.543 311.868 444 307z"/>
<path style="fill:#7e7e7e; stroke:none;" d="M442.333 310.667L442.667 311.333L442.333 310.667z"/>
<path style="fill:#858585; stroke:none;" d="M248 314L249 315L248 314z"/>
<path style="fill:#626262; stroke:none;" d="M441.333 314.667L441.667 315.333L441.333 314.667z"/>
<path style="fill:#838383; stroke:none;" d="M247 316L248 317L247 316z"/>
<path style="fill:#bbbbbb; stroke:none;" d="M441.333 316.667L441.667 317.333L441.333 316.667z"/>
<path style="fill:#8b8b8b; stroke:none;" d="M245 319L246 320L245 319z"/>
<path style="fill:#5c5c5c; stroke:none;" d="M440 320L440 328L441 328L440 320z"/>
<path style="fill:#e7cfe7; stroke:none;" d="M615 325L615 334L616 334L615 325z"/>
<path style="fill:#9a9a9a; stroke:none;" d="M238 326L239 327L238 326z"/>
<path style="fill:#b75cab; stroke:none;" d="M155 330L155 331L160 331L155 330z"/>
<path style="fill:#aeb3b9; stroke:none;" d="M161 330L161 333L162 333L161 330z"/>
<path style="fill:#7c7c7c; stroke:none;" d="M232 330L233 331L232 330z"/>
<path style="fill:#9d9d9d; stroke:none;" d="M441 331L441 334L442 334L441 331z"/>
<path style="fill:#6c6c6c; stroke:none;" d="M162.333 332.667L162.667 333.333L162.333 332.667z"/>
<path style="fill:#4a4a4a; stroke:none;" d="M226.667 332.333L227.333 332.667L226.667 332.333z"/>
<path style="fill:#6f6f6f; stroke:none;" d="M222.667 333.333L223.333 333.667L222.667 333.333z"/>
<path style="fill:#737373; stroke:none;" d="M218.667 334.333L219.333 334.667L218.667 334.333z"/>
<path style="fill:#a9a8a4; stroke:none;" d="M163 335L164 336L163 335z"/>
<path style="fill:#6e6e6e; stroke:none;" d="M214.667 335.333L215.333 335.667L214.667 335.333z"/>
<path style="fill:#b1b5b6; stroke:none;" d="M170.667 336.333L171.333 336.667L170.667 336.333z"/>
<path style="fill:#aaaaaa; stroke:none;" d="M208 336L208 337L211 337L208 336z"/>
<path style="fill:#9d9d9d; stroke:none;" d="M442 336L443 337L442 336z"/>
<path style="fill:#7e8484; stroke:none;" d="M173.667 337.333L174.333 337.667L173.667 337.333z"/>
<path style="fill:#c8c8c8; stroke:none;" d="M201 337L201 338L204 338L201 337z"/>
<path style="fill:#5c5c5c; stroke:none;" d="M204.667 337.333L205.333 337.667L204.667 337.333z"/>
<path style="fill:#717171; stroke:none;" d="M165 338L166 339L165 338z"/>
<path style="fill:#434748; stroke:none;" d="M177.667 338.333L178.333 338.667L177.667 338.333z"/>
<path style="fill:#c0c4c5; stroke:none;" d="M179 338L179 339L195 339L179 338z"/>
<path style="fill:#484848; stroke:none;" d="M195 338L195 339L200 339L195 338z"/>
<path style="fill:#7f7f7f; stroke:none;" d="M443 339L444 340L443 339z"/>
<path style="fill:#ba62ac; stroke:none;" d="M614 339L614 347L615 347L614 339z"/>
<path style="fill:#8d8d8d; stroke:none;" d="M166 340L167 341L166 340z"/>
<path style="fill:#919191; stroke:none;" d="M444 341L445 342L444 341z"/>
<path style="fill:#8c8c8c; stroke:none;" d="M445 343L446 344L445 343z"/>
<path style="fill:#676767; stroke:none;" d="M169 345L170 346L169 345z"/>
<path style="fill:#8f8f8f; stroke:none;" d="M447 346L448 347L447 346z"/>
<path style="fill:#808080; stroke:none;" d="M170 347L171 348L170 347z"/>
<path style="fill:#848484; stroke:none;" d="M171 349L172 350L171 349z"/>
<path style="fill:#8a8a8a; stroke:none;" d="M172 351L173 352L172 351z"/>
<path style="fill:#919191; stroke:none;" d="M173 353L174 354L173 353z"/>
<path style="fill:#4b1644; stroke:none;" d="M521.667 353.333L522.333 353.667L521.667 353.333z"/>
<path style="fill:#919191; stroke:none;" d="M174 355L175 356L174 355z"/>
<path style="fill:#a1a1a1; stroke:none;" d="M456 355L457 356L456 355z"/>
<path style="fill:#828687; stroke:none;" d="M518 355L519 356L518 355z"/>
<path style="fill:#d2abda; stroke:none;" d="M613 355L613 362L614 362L613 355z"/>
<path style="fill:#898989; stroke:none;" d="M175 357L176 358L175 357z"/>
<path style="fill:#47183c; stroke:none;" d="M524.333 357.667L524.667 358.333L524.333 357.667z"/>
<path style="fill:#969799; stroke:none;" d="M512 358L513 359L512 358z"/>
<path style="fill:#7e7e7e; stroke:none;" d="M176 359L177 360L176 359z"/>
<path style="fill:#b3b3b3; stroke:none;" d="M469.667 360.333L470.333 360.667L469.667 360.333z"/>
<path style="fill:#707070; stroke:none;" d="M177 361L178 362L177 361z"/>
<path style="fill:#5b5b5b; stroke:none;" d="M472.667 361.333L473.333 361.667L472.667 361.333z"/>
<path style="fill:#c3c3c3; stroke:none;" d="M474.667 361.333L475.333 361.667L474.667 361.333z"/>
<path style="fill:#8f9396; stroke:none;" d="M502.667 361.333L503.333 361.667L502.667 361.333z"/>
<path style="fill:#494949; stroke:none;" d="M477 362L477 363L480 363L477 362z"/>
<path style="fill:#1e201f; stroke:none;" d="M485 363L485 364L493 364L485 363z"/>
<path style="fill:#4a0f3b; stroke:none;" d="M527.333 366.667L527.667 367.333L527.333 366.667z"/>
<path style="fill:#e3bad8; stroke:none;" d="M612 366L612 370L613 370L612 366z"/>
<path style="fill:#e7c6e1; stroke:none;" d="M611 374L611 378L612 378L611 374z"/>
<path style="fill:#646464; stroke:none;" d="M183 375L184 376L183 375z"/>
<path style="fill:#b8b8b8; stroke:none;" d="M187.333 386.667L187.667 387.333L187.333 386.667z"/>
<path style="fill:#bcbcbc; stroke:none;" d="M188.333 389.667L188.667 390.333L188.333 389.667z"/>
<path style="fill:#c28ebf; stroke:none;" d="M609 389L609 395L610 395L609 389z"/>
<path style="fill:#afafaf; stroke:none;" d="M189.333 392.667L189.667 393.333L189.333 392.667z"/>
<path style="fill:#ead0e9; stroke:none;" d="M609 395L609 414L610 414L609 395z"/>
<path style="fill:#a8a8a8; stroke:none;" d="M192.333 402.667L192.667 403.333L192.333 402.667z"/>
<path style="fill:#b2b2b2; stroke:none;" d="M193.333 406.667L193.667 407.333L193.333 406.667z"/>
<path style="fill:#b8b8b8; stroke:none;" d="M194.333 410.667L194.667 411.333L194.333 410.667z"/>
<path style="fill:#a7a7a7; stroke:none;" d="M195.333 414.667L195.667 415.333L195.333 414.667z"/>
<path style="fill:#d597ca; stroke:none;" d="M609 414L609 419L610 419L609 414z"/>
<path style="fill:#949494; stroke:none;" d="M196.333 418.667L196.667 419.333L196.333 418.667z"/>
<path style="fill:#666666; stroke:none;" d="M197.333 422.667L197.667 423.333L197.333 422.667z"/>
<path style="fill:#bebebe; stroke:none;" d="M197.333 424.667L197.667 425.333L197.333 424.667z"/>
<path style="fill:#cc7db6; stroke:none;" d="M610 427L610 432L611 432L610 427z"/>
<path style="fill:#868686; stroke:none;" d="M198.333 428.667L198.667 429.333L198.333 428.667z"/>
<path style="fill:#646464; stroke:none;" d="M199.333 433.667L199.667 434.333L199.333 433.667z"/>
<path style="fill:#adadad; stroke:none;" d="M199.333 435.667L199.667 436.333L199.333 435.667z"/>
<path style="fill:#6b6b6b; stroke:none;" d="M200.333 440.667L200.667 441.333L200.333 440.667z"/>
<path style="fill:#571552; stroke:none;" d="M539 440L539 448L540 448L539 440z"/>
<path style="fill:#c275ad; stroke:none;" d="M613.333 446.667L613.667 447.333L613.333 446.667z"/>
<path style="fill:#6c6c6c; stroke:none;" d="M201 448L201 451L202 451L201 448z"/>
<path style="fill:#2e0c27; stroke:none;" d="M539 448L539 480L540 480L539 448z"/>
<path style="fill:#999999; stroke:none;" d="M202 459L202 464L203 464L202 459z"/>
<path style="fill:#383838; stroke:none;" d="M203 469L203 475L204 475L203 469z"/>
<path style="fill:#646464; stroke:none;" d="M203 475L203 501L204 501L203 475z"/>
<path style="fill:#af69af; stroke:none;" d="M610 476L610 477L618 477L610 476z"/>
<path style="fill:#bb90bb; stroke:none;" d="M629.333 477.667L629.667 478.333L629.333 477.667z"/>
<path style="fill:#c184bd; stroke:none;" d="M600.667 478.333L601.333 478.667L600.667 478.333z"/>
<path style="fill:#808281; stroke:none;" d="M618.667 485.333L619.333 485.667L618.667 485.333z"/>
<path style="fill:#000000; stroke:none;" d="M631 503L631 485C619.121 485 607.4 487.067 599.529 497.015C583.827 516.86 594.694 549.189 621 551.829C639.915 553.728 655.855 541.918 658.572 523C659.534 516.3 659.169 503.997 652.66 499.777C647.667 496.54 636.598 502.512 631 503z"/>
<path style="fill:#7b7b7b; stroke:none;" d="M631 485L631 491L632 491L631 485z"/>
<path style="fill:#d68fd3; stroke:none;" d="M660 486L660 487L664 487L660 486z"/>
<path style="fill:#8f8d8e; stroke:none;" d="M612 487L613 488L612 487z"/>
<path style="fill:#cb9ac9; stroke:none;" d="M667.667 487.333L668.333 487.667L667.667 487.333z"/>
<path style="fill:#777777; stroke:none;" d="M610 488L611 489L610 488z"/>
<path style="fill:#858585; stroke:none;" d="M608 489L609 490L608 489z"/>
<path style="fill:#818181; stroke:none;" d="M605 491L606 492L605 491z"/>
<path style="fill:#aeaeae; stroke:none;" d="M631 491L631 496L632 496L631 491z"/>
<path style="fill:#6f1d5f; stroke:none;" d="M538 496L538 504L539 504L538 496z"/>
<path style="fill:#747474; stroke:none;" d="M598 498L599 499L598 498z"/>
<path style="fill:#545454; stroke:none;" d="M649.667 498.333L650.333 498.667L649.667 498.333z"/>
<path style="fill:#747577; stroke:none;" d="M652 498L653 499L652 498z"/>
<path style="fill:#575757; stroke:none;" d="M645.667 499.333L646.333 499.667L645.667 499.333z"/>
<path style="fill:#636363; stroke:none;" d="M641.667 500.333L642.333 500.667L641.667 500.333z"/>
<path style="fill:#ab6b7c; stroke:none;" d="M312 501L312 502L326 502L312 501z"/>
<path style="fill:#7d7d7d; stroke:none;" d="M596 501L597 502L596 501z"/>
<path style="fill:#6c6c6c; stroke:none;" d="M637.667 501.333L638.333 501.667L637.667 501.333z"/>
<path style="fill:#6d6d6f; stroke:none;" d="M654 501L655 502L654 501z"/>
<path style="fill:#4e3338; stroke:none;" d="M304.667 502.333L305.333 502.667L304.667 502.333z"/>
<path style="fill:#f191ac; stroke:none;" d="M189 594C209.64 603.764 224.146 625.488 219 648C224.105 647.818 233.385 653.196 239 654.833C251.251 658.407 265.32 661.767 278 663C293.575 664.514 310.215 666.535 326 665C336.732 663.957 347.282 661.042 358 660C370.545 658.78 383.951 651.832 395 646C399.884 643.422 403.992 642.451 406 637L427 626L426 624C433.606 620.443 439.237 611.436 444.459 604.999C462.801 582.392 476.755 550.566 477 521L482 522C469.129 512.372 446.035 510.63 431 512.792C397.284 517.639 369.889 528.999 345.166 553.286C336.497 561.802 329.904 571.866 322 581C327.619 566.747 340.081 553.016 350.695 542.155C354.512 538.25 364.015 533.254 363.433 527C362.938 521.689 356.829 515.67 352.985 512.468C340.036 501.677 320.185 499.245 304 502.888C266.207 511.396 236.09 533.926 211 563C203.613 571.56 191.27 582.592 189 594z"/>
<path style="fill:#643a44; stroke:none;" d="M331.667 502.333L332.333 502.667L331.667 502.333z"/>
<path style="fill:#3c3c3c; stroke:none;" d="M634.667 502.333L635.333 502.667L634.667 502.333z"/>
<path style="fill:#633a48; stroke:none;" d="M299 503L299 504L302 504L299 503z"/>
<path style="fill:#626262; stroke:none;" d="M595 503L596 504L595 503z"/>
<path style="fill:#a66173; stroke:none;" d="M296.667 504.333L297.333 504.667L296.667 504.333z"/>
<path style="fill:#915b69; stroke:none;" d="M292.667 505.333L293.333 505.667L292.667 505.333z"/>
<path style="fill:#787878; stroke:none;" d="M594 505L595 506L594 505z"/>
<path style="fill:#727375; stroke:none;" d="M656 505L657 506L656 505z"/>
<path style="fill:#bb7eb9; stroke:none;" d="M689.333 506.667L689.667 507.333L689.333 506.667z"/>
<path style="fill:#888888; stroke:none;" d="M202 507L202 513L203 513L202 507z"/>
<path style="fill:#7d515e; stroke:none;" d="M345 507L346 508L345 507z"/>
<path style="fill:#521445; stroke:none;" d="M537 507L537 512L538 512L537 507z"/>
<path style="fill:#8c4b61; stroke:none;" d="M419 510L419 511L434 511L419 510z"/>
<path style="fill:#593841; stroke:none;" d="M434 510L434 511L440 511L434 510z"/>
<path style="fill:#8c8d8f; stroke:none;" d="M658.333 510.667L658.667 511.333L658.333 510.667z"/>
<path style="fill:#8d485d; stroke:none;" d="M351 511L352 512L351 511z"/>
<path style="fill:#af5473; stroke:none;" d="M410 511L410 512L414 512L410 511z"/>
<path style="fill:#ef74a0; stroke:none;" d="M364 528C351.404 545.835 328.162 558.653 322 581C336.991 568.797 347.216 550.942 362.91 538.606C385.541 520.818 409.318 518.352 436 512C420.887 505.658 394.263 513.853 380 519.812C374.625 522.057 369.773 527.385 364 528z"/>
<path style="fill:#6f3d49; stroke:none;" d="M445 511L445 512L448 512L445 511z"/>
<path style="fill:#565656; stroke:none;" d="M592 511L592 514L593 514L592 511z"/>
<path style="fill:#653044; stroke:none;" d="M403.667 512.333L404.333 512.667L403.667 512.333z"/>
<path style="fill:#9d5e6f; stroke:none;" d="M450.667 512.333L451.333 512.667L450.667 512.333z"/>
<path style="fill:#482f33; stroke:none;" d="M452.667 512.333L453.333 512.667L452.667 512.333z"/>
<path style="fill:#363636; stroke:none;" d="M202 513L202 518L203 518L202 513z"/>
<path style="fill:#a14e6c; stroke:none;" d="M399 513L399 514L402 514L399 513z"/>
<path style="fill:#754754; stroke:none;" d="M456.667 513.333L457.333 513.667L456.667 513.333z"/>
<path style="fill:#9e546f; stroke:none;" d="M395.667 514.333L396.333 514.667L395.667 514.333z"/>
<path style="fill:#754752; stroke:none;" d="M460.667 514.333L461.333 514.667L460.667 514.333z"/>
<path style="fill:#9a4765; stroke:none;" d="M391.667 515.333L392.333 515.667L391.667 515.333z"/>
<path style="fill:#663b45; stroke:none;" d="M464.667 515.333L465.333 515.667L464.667 515.333z"/>
<path style="fill:#c7c7c7; stroke:none;" d="M591 515L591 521L592 521L591 515z"/>
<path style="fill:#babbbd; stroke:none;" d="M659 515L659 522L660 522L659 515z"/>
<path style="fill:#a25c76; stroke:none;" d="M388.667 516.333L389.333 516.667L388.667 516.333z"/>
<path style="fill:#31102d; stroke:none;" d="M536 516L536 523L537 523L536 516z"/>
<path style="fill:#77545b; stroke:none;" d="M358 518L359 519L358 518z"/>
<path style="fill:#7d485a; stroke:none;" d="M382.667 518.333L383.333 518.667L382.667 518.333z"/>
<path style="fill:#c18cc4; stroke:none;" d="M560.333 518.667L560.667 519.333L560.333 518.667z"/>
<path style="fill:#795360; stroke:none;" d="M261 519L262 520L261 519z"/>
<path style="fill:#b6b6b6; stroke:none;" d="M201 520L201 523L202 523L201 520z"/>
<path style="fill:#ee7aa1; stroke:none;" d="M477 521C476.271 556.302 455.27 603.324 426 624L426 625C442.993 622.453 479.795 599.661 489 626C505.996 614.52 518.515 593.503 526.427 575C528.875 569.277 533.924 560.558 531.257 554.17C529.133 549.084 522.291 545.126 518 542.011C504.892 532.494 492.197 526.017 477 521z"/>
<path style="fill:#d0b3d2; stroke:none;" d="M559 522L559 526L560 526L559 522z"/>
<path style="fill:#3f3f3f; stroke:none;" d="M201 523L201 528L202 528L201 523z"/>
<path style="fill:#4e4e4e; stroke:none;" d="M592 523L592 526L593 526L592 523z"/>
<path style="fill:#484a49; stroke:none;" d="M658 523L658 526L659 526L658 523z"/>
<path style="fill:#7e475c; stroke:none;" d="M370 525L371 526L370 525z"/>
<path style="fill:#b961ad; stroke:none;" d="M558 527L558 538L559 538L558 527z"/>
<path style="fill:#be7db3; stroke:none;" d="M672 528L672 539L673 539L672 528z"/>
<path style="fill:#d08dc3; stroke:none;" d="M689.333 529.667L689.667 530.333L689.333 529.667z"/>
<path style="fill:#a0a0a0; stroke:none;" d="M200 530L200 533L201 533L200 530z"/>
<path style="fill:#494949; stroke:none;" d="M200 533L200 536L201 536L200 533z"/>
<path style="fill:#89505f; stroke:none;" d="M240 534L241 535L240 534z"/>
<path style="fill:#dfa5d7; stroke:none;" d="M688.333 534.667L688.667 535.333L688.333 534.667z"/>
<path style="fill:#787878; stroke:none;" d="M597 537L598 538L597 537z"/>
<path style="fill:#808183; stroke:none;" d="M653 537L654 538L653 537z"/>
<path style="fill:#707070; stroke:none;" d="M199 539L199 542L200 542L199 539z"/>
<path style="fill:#84495d; stroke:none;" d="M515 540L516 541L515 540z"/>
<path style="fill:#a2a2a2; stroke:none;" d="M600 541L601 542L600 541z"/>
<path style="fill:#a3a4a6; stroke:none;" d="M650 541L651 542L650 541z"/>
<path style="fill:#9c9c9c; stroke:none;" d="M601 542L602 543L601 542z"/>
<path style="fill:#909092; stroke:none;" d="M649 542L650 543L649 542z"/>
<path style="fill:#a3a3a3; stroke:none;" d="M602 543L603 544L602 543z"/>
<path style="fill:#9e9c9f; stroke:none;" d="M648 543L649 544L648 543z"/>
<path style="fill:#afafaf; stroke:none;" d="M198.333 544.667L198.667 545.333L198.333 544.667z"/>
<path style="fill:#606060; stroke:none;" d="M198.333 546.667L198.667 547.333L198.333 546.667z"/>
<path style="fill:#737373; stroke:none;" d="M606 546L607 547L606 546z"/>
<path style="fill:#747474; stroke:none;" d="M644 546L645 547L644 546z"/>
<path style="fill:#c58cc3; stroke:none;" d="M670.333 547.667L670.667 548.333L670.333 547.667z"/>
<path style="fill:#a1a1a1; stroke:none;" d="M609 548L610 549L609 548z"/>
<path style="fill:#a2a2a2; stroke:none;" d="M611 549L612 550L611 549z"/>
<path style="fill:#b3b3b3; stroke:none;" d="M197.333 550.667L197.667 551.333L197.333 550.667z"/>
<path style="fill:#b87cb2; stroke:none;" d="M561.333 550.667L561.667 551.333L561.333 550.667z"/>
<path style="fill:#777777; stroke:none;" d="M636 550L637 551L636 550z"/>
<path style="fill:#5a1450; stroke:none;" d="M532 551L531 554L532 551z"/>
<path style="fill:#545454; stroke:none;" d="M617.667 551.333L618.333 551.667L617.667 551.333z"/>
<path style="fill:#909090; stroke:none;" d="M632.667 551.333L633.333 551.667L632.667 551.333z"/>
<path style="fill:#bc6fb3; stroke:none;" d="M733 551L733 552L755 552L733 551z"/>
<path style="fill:#e9bce5; stroke:none;" d="M755 551L755 552L760 552L755 551z"/>
<path style="fill:#686868; stroke:none;" d="M197.333 552.667L197.667 553.333L197.333 552.667z"/>
<path style="fill:#989898; stroke:none;" d="M621 552L621 553L628 553L621 552z"/>
<path style="fill:#bc78b5; stroke:none;" d="M724 552L724 553L728 553L724 552z"/>
<path style="fill:#b563ad; stroke:none;" d="M715 553L715 554L720 554L715 553z"/>
<path style="fill:#b860ac; stroke:none;" d="M707 554L707 555L712 555L707 554z"/>
<path style="fill:#9e9e9e; stroke:none;" d="M196.333 556.667L196.667 557.333L196.333 556.667z"/>
<path style="fill:#cfa8d7; stroke:none;" d="M693 556L693 557L696 557L693 556z"/>
<path style="fill:#e4bfd0; stroke:none;" d="M680 557L683 559L683 558L680 557z"/>
<path style="fill:#d89acd; stroke:none;" d="M687 557L687 558L690 558L687 557z"/>
<path style="fill:#4d4d4d; stroke:none;" d="M196.333 558.667L196.667 559.333L196.333 558.667z"/>
<path style="fill:#82535d; stroke:none;" d="M213 560L214 561L213 560z"/>
<path style="fill:#aaaaaa; stroke:none;" d="M195 561L195 564L196 564L195 561z"/>
<path style="fill:#8c878b; stroke:none;" d="M194.333 566.667L194.667 567.333L194.333 566.667z"/>
<path style="fill:#7b666d; stroke:none;" d="M207 567L208 568L207 567z"/>
<path style="fill:#ee7aa1; stroke:none;" d="M677 583C687.531 589.363 697.635 596.246 709 601.127C723.32 607.277 741.482 611.96 756 603.633C764.198 598.932 773.085 585.489 766.991 576.093C762.815 569.656 753.041 568.204 746 567.289C731.459 565.4 716.374 567.781 702 569.718C690.992 571.2 681.924 571.377 677 583z"/>
<path style="fill:#9c798d; stroke:none;" d="M193.333 570.667L193.667 571.333L193.333 570.667z"/>
<path style="fill:#ed5c93; stroke:none;" d="M688 576L688 577C704.4 577.002 721.532 580.062 735.714 588.594C741.58 592.123 746.121 597.654 752 601C743.278 575.343 710.385 569.524 688 576z"/>
<path style="fill:#9e5f8e; stroke:none;" d="M192.333 574.667L192.667 575.333L192.333 574.667z"/>
<path style="fill:#c998c5; stroke:none;" d="M796 574L796 581L797 581L796 574z"/>
<path style="fill:#9b4090; stroke:none;" d="M191.333 578.667L191.667 579.333L191.333 578.667z"/>
<path style="fill:#7a5964; stroke:none;" d="M198 578L199 579L198 578z"/>
<path style="fill:#a851a0; stroke:none;" d="M190.333 581.667L190.667 582.333L190.333 581.667z"/>
<path style="fill:#861c80; stroke:none;" d="M190 583L189 588L190 588L190 583z"/>
<path style="fill:#912281; stroke:none;" d="M193 779L192 779C192.008 791.305 193.819 806.286 202.529 815.786C207.566 821.281 218.103 824.063 225 826.505C241.584 832.376 258.01 838.328 275 842.989C336.131 859.762 400.65 867.249 464 862.911C489.899 861.137 515.276 855.047 541 853L541 852L539 851C554.89 847.025 570.199 836.999 585 830.158C635.895 806.635 695.51 777.615 714.258 721C717.975 709.773 720.524 698.28 723.974 687C725.43 682.24 728.633 677.107 728.462 672C728.199 664.148 722.678 654.275 719.796 647C714.32 633.177 708.503 615.382 698.335 604.264C694.684 600.272 689.247 598.171 685 594.883C680.586 591.467 674.384 585.316 668.925 583.835C662.973 582.22 651.729 592.685 646.286 595.246C621.564 606.881 596.494 624.346 574.117 639.986C557.138 651.852 538.243 660.37 520.424 670.608C450.597 710.727 364.568 748.144 282 734.754C270.202 732.841 258.407 730.664 247 726.911C240.302 724.707 233.055 719.927 225.996 719.488C220.461 719.143 210.704 728.613 213.336 734.41C217.607 743.82 230.107 748.933 238.91 752.59C265.459 763.619 294.304 767.589 323 764.155C366.347 758.968 405.81 742.976 446 726.77C467.315 718.175 488.678 709.725 508.996 698.83C543.556 680.299 575.308 656.776 609 636.803C615.121 633.175 621.576 630.312 627.576 626.46C643.328 616.344 667.207 590.356 686.671 606.36C693.458 611.94 695.346 624.938 700.166 632.424C703.673 637.872 716.375 649.874 715.781 656.001C714.819 665.91 703.837 678.2 698.135 685.989C678.024 713.462 651.555 736.509 622 753.427C571.531 782.318 519.173 798.928 463 812.704C410.741 825.521 356.814 834.659 303 828.286C264.305 823.702 212.959 816.893 193 779z"/>
<path style="fill:#ca96c7; stroke:none;" d="M795.333 585.667L795.667 586.333L795.333 585.667z"/>
<path style="fill:#904f63; stroke:none;" d="M192 586L193 587L192 586z"/>
<path style="fill:#bb51b3; stroke:none;" d="M188.333 587.667L188.667 588.333L188.333 587.667z"/>
<path style="fill:#dab2d5; stroke:none;" d="M149 588L149 589L152 589L149 588z"/>
<path style="fill:#d3acc7; stroke:none;" d="M600.667 588.333L601.333 588.667L600.667 588.333z"/>
<path style="fill:#c187c1; stroke:none;" d="M629 588L629 589L632 589L629 588z"/>
<path style="fill:#c2a7c8; stroke:none;" d="M169 590L169 591L174 591L169 590z"/>
<path style="fill:#921185; stroke:none;" d="M188 589L188 592L190 591L190 590L188 589z"/>
<path style="fill:#b67ab0; stroke:none;" d="M603.667 589.333L604.333 589.667L603.667 589.333z"/>
<path style="fill:#b24f85; stroke:none;" d="M187 590L189 593L187 590z"/>
<path style="fill:#c191c1; stroke:none;" d="M610 590L610 591L621 591L610 590z"/>
<path style="fill:#e9eef1; stroke:none;" d="M221 638C195.264 637.929 174.217 618.203 174 592C156.386 589.824 149.349 606.862 151.184 622C153.188 638.52 167.984 655.74 184 660.073C200.759 664.606 220.129 657.068 221 638z"/>
<path style="fill:#9c298e; stroke:none;" d="M665 601.839C651.255 606.839 639.69 618.067 627.576 625.909C607.457 638.932 586.297 650.672 566 663.564C520.888 692.218 475.518 714.64 426 734.449C400.229 744.758 373.567 756.086 346 760.562C311.772 766.119 273.852 769.15 241.576 753.425C230.863 748.206 223.435 742.834 214.244 735.452C212.207 733.816 210.551 734.301 208.9 736.192C204.859 740.823 201.854 747.446 199.309 753C195.881 760.481 191.656 770.613 193.275 779C195.681 791.465 208.988 802.698 219.961 807.34C243.065 817.114 267.996 824.753 293 827.714C350.877 834.569 407.713 826.508 464 812.704C511.819 800.977 558.866 788.04 602.985 765.392C646.314 743.15 696.529 705.794 715.315 659C718.622 650.763 708.822 645.219 704.789 639.001C695.387 624.504 689.041 593.094 665 601.839z"/>
<path style="fill:#b182b6; stroke:none;" d="M699.333 604.667L699.667 605.333L699.333 604.667z"/>
<path style="fill:#ba84c0; stroke:none;" d="M150 610L150 620L151 620L150 610z"/>
<path style="fill:#ffffff; stroke:none;" d="M401 650C428.954 650 459.164 644.228 469 614C446.713 614.184 407.999 626.214 401 650z"/>
<path style="fill:#e9eef1; stroke:none;" d="M469.51 615.029C466.636 617.027 465.946 622.149 464.008 625C460.395 630.313 455.33 635.083 450 638.637C441.151 644.54 428.727 649.67 418 649.985C412 650.161 401.566 647.53 398.468 654.059C389.877 672.164 405.964 671.756 419 669.565C440.054 666.026 465.423 656.989 480.907 641.829C485.658 637.177 490.041 629.943 488.157 623.001C486.496 616.884 475.407 610.928 469.51 615.029z"/>
<path style="fill:#d7afd4; stroke:none;" d="M122.333 616.667L122.667 617.333L122.333 616.667z"/>
<path style="fill:#c079bb; stroke:none;" d="M731.667 618.333L732.333 618.667L731.667 618.333z"/>
<path style="fill:#be72b0; stroke:none;" d="M735 619L735 620L738 620L735 619z"/>
<path style="fill:#d49ccb; stroke:none;" d="M764.667 619.333L765.333 619.667L764.667 619.333z"/>
<path style="fill:#e1afd4; stroke:none;" d="M739.667 620.333L740.333 620.667L739.667 620.333z"/>
<path style="fill:#d1a3d2; stroke:none;" d="M760.667 620.333L761.333 620.667L760.667 620.333z"/>
<path style="fill:#dab8d3; stroke:none;" d="M746 621L746 622L754 622L746 621z"/>
<path style="fill:#9e4a97; stroke:none;" d="M121 624L121 640L122 640L121 624z"/>
<path style="fill:#cc99c4; stroke:none;" d="M488 627L488 630L489 630L488 627z"/>
<path style="fill:#ee7aa1; stroke:none;" d="M406 637C398.612 647.878 379.898 652.92 368 657.319C333.641 670.02 291.661 666.267 256.83 658.22C244.844 655.451 230.195 654.3 220 647C214.698 653.065 210.081 658.063 202 660L202 661C223.912 661.955 246.068 671.827 268 674.711C313.248 680.66 355.141 678.041 400 672L400 671C389.728 661.208 403.974 646.573 408 637L406 637z"/>
<path style="fill:#c994ca; stroke:none;" d="M184.667 660.333L185.333 660.667L184.667 660.333z"/>
<path style="fill:#ddbee0; stroke:none;" d="M188 661L188 662L200 662L188 661z"/>
<path style="fill:#bc78b3; stroke:none;" d="M424.667 668.333L425.333 668.667L424.667 668.333z"/>
<path style="fill:#ca94c6; stroke:none;" d="M419 669L419 670L422 670L419 669z"/>
<path style="fill:#c098bd; stroke:none;" d="M412 670L412 671L416 671L412 670z"/>
<path style="fill:#cca1cc; stroke:none;" d="M400 671L400 672L408 672L400 671z"/>
<path style="fill:#8e2081; stroke:none;" d="M288 768L288 769C367.964 806.978 459.839 777.205 526.424 727.078C541.645 715.62 556.151 702.972 569.379 689.245C574.668 683.757 580.807 679.118 584 672C573.468 674.964 566.318 688.491 557.74 694.984C533.708 713.175 510.379 732.508 483.961 747.335C443.59 769.992 393.879 786.294 347 781.83C326.792 779.906 307.643 769.726 288 768z"/>
<path style="fill:#7d1671; stroke:none;" d="M728 674C719.82 702.758 712.753 734.261 694.575 758.675C683.05 774.155 665.047 784.136 649 794.205C614.484 815.865 577.385 837.043 539 851L539 852C556.191 851.856 575.753 844.362 592 839.001C630.422 826.322 666.881 810.308 702 790.15C713.633 783.472 724.889 776.169 736 768.67C740.289 765.775 747.392 762.464 749.968 757.816C752.813 752.683 748.388 741.306 746.872 736C741.545 717.359 739.775 689.738 728 674z"/>
<path style="fill:#aa5f9a; stroke:none;" d="M729.333 674.667L729.667 675.333L729.333 674.667z"/>
<path style="fill:#a75c97; stroke:none;" d="M730.333 677.667L730.667 678.333L730.333 677.667z"/>
<path style="fill:#c24f94; stroke:none;" d="M304 678L304 679L312 679L304 678z"/>
<path style="fill:#a66c9c; stroke:none;" d="M731.333 680.667L731.667 681.333L731.333 680.667z"/>
<path style="fill:#9c528f; stroke:none;" d="M734.333 690.667L734.667 691.333L734.333 690.667z"/>
<path style="fill:#ad63a0; stroke:none;" d="M735.333 693.667L735.667 694.333L735.333 693.667z"/>
<path style="fill:#a86199; stroke:none;" d="M737.333 700.667L737.667 701.333L737.333 700.667z"/>
<path style="fill:#a3639f; stroke:none;" d="M739.333 707.667L739.667 708.333L739.333 707.667z"/>
<path style="fill:#8ed4f6; stroke:none;" d="M742.667 715.333L743.333 715.667L742.667 715.333z"/>
<path style="fill:#008fd5; stroke:none;" d="M742 716C744.133 726.335 753.385 745.792 750.303 755.96C747.707 764.528 728.296 773.371 721 777.95C691.342 796.561 660.521 812.791 628 825.8C532.845 863.863 425.686 874.653 325 854.551C297.912 849.143 271.24 842.253 245 833.506C232.91 829.476 221.244 823.349 209 820C214.389 828.37 232.12 836.223 241 840.941C279.4 861.338 320.044 859.119 362 865.299C405.49 871.706 452.902 879.242 497 874.829C522.531 872.275 546.2 859.856 572 858.089C602.791 855.981 637.214 870.617 666.911 857.197C688.289 847.536 702.338 820.177 719.576 804.889C729.626 795.975 741.073 789.724 754 786.04C763.058 783.459 773.403 786.906 777.272 775.561C784.387 754.696 760.835 738.448 760 719L742 716z"/>
<path style="fill:#68bae9; stroke:none;" d="M746.667 716.333L747.333 716.667L746.667 716.333z"/>
<path style="fill:#7ac2e8; stroke:none;" d="M752.667 717.333L753.333 717.667L752.667 717.333z"/>
<path style="fill:#87c3e8; stroke:none;" d="M757 718L757 719L760 719L757 718z"/>
<path style="fill:#01a4e7; stroke:none;" d="M760 719C760.396 738.201 783.924 754.596 777.272 774.711C773.302 786.713 762.495 783.334 753 786.04C738.33 790.221 726.133 797.866 714.989 808.174C699.167 822.808 686.23 848.273 665.961 857.197C635.561 870.58 601.404 855.179 570 858.17C544.437 860.604 520.449 873.127 495 874.911C450.582 878.024 405.866 870.388 362 865.17C335.127 861.973 307.612 861.368 281 856.537C252.521 851.367 228.822 832.548 204.961 817.626C193.198 810.269 179.731 804.769 175.705 790C172.099 776.768 173.742 759.453 179.379 747C181.988 741.236 186.686 736.757 189 731C177.564 734.215 166.244 737.44 155 741.344C150.327 742.967 144.123 744.126 145 750C139.668 752.407 138.915 757.771 137.345 763C132.08 780.542 139.878 796.416 148.406 811.039C170.096 848.23 206.656 852.527 244.91 861.259C254.467 863.441 264.104 866.612 274 867.844C349.602 877.26 425.178 880.944 501 888.17C554.466 893.265 610.945 901.593 663.911 887.448C680.751 882.95 709.617 876.005 721.397 862.215C727.806 854.712 715.832 842.816 729.089 837.648C761.239 825.115 797.389 843.491 828.714 828.851C850.631 818.609 859.096 792.642 841.61 773.424C828.95 759.51 808.18 752.729 792.464 742.964C784.836 738.224 777.836 729.249 770 726L770 724L774 723L760 719z"/>
<path style="fill:#82d1f2; stroke:none;" d="M762.667 719.333L763.333 719.667L762.667 719.333z"/>
<path style="fill:#4bcbff; stroke:none;" d="M766.667 720.333L767.333 720.667L766.667 720.333z"/>
<path style="fill:#9bdbf7; stroke:none;" d="M772.667 721.333L773.333 721.667L772.667 721.333z"/>
<path style="fill:#00adef; stroke:none;" d="M770 724L770 726C773.835 728.333 775.581 732.09 779.118 734.621C788.297 741.19 798.139 746.289 807.961 751.731C816.859 756.661 827.055 761.931 835 768.249C858.097 786.616 854.506 817.939 826.911 829.25C803.397 838.888 779.029 830.444 755 832.089C746.348 832.682 730.713 833.826 724.148 840.109C717.848 846.138 726.541 857.267 719.866 862.91C709.142 871.975 695.055 876.242 682.17 880.82C647.488 893.143 609.673 896.601 573 894.089C532.977 891.349 493.042 886.832 453 884.089C392.847 879.97 332.618 877.234 273 867.562C263.491 866.019 254.224 862.773 244.91 861.093C220.983 856.779 193.439 853.437 173.301 838.536C162.783 830.754 155.108 820.156 147.92 809.441C138.558 795.485 126.345 762.37 145 750L144 746C133.013 749.005 121.669 755.098 112 761.065C104.946 765.418 97.8921 770.137 92.0147 776.015C72.6426 795.387 76.5881 819.089 97 835.916C124.11 858.265 161.366 870.116 195 878.525C341.5 915.15 499.184 919.087 649 904.83C715.986 898.456 785.757 888.274 849 864.424C872.664 855.499 904.253 843.438 917.096 820C927.102 801.74 917.714 783.531 903 771.464C877.411 750.479 842.532 739.445 811 731.116C799.599 728.104 781.412 719.42 770 724z"/>
<path style="fill:#75d1ff; stroke:none;" d="M776.667 722.333L777.333 722.667L776.667 722.333z"/>
<path style="fill:#008fd5; stroke:none;" d="M202 816C199.249 808.482 194.461 802.04 192.934 794C187.73 766.58 204.454 745.753 218 724C210.162 724.342 195.764 726.575 189.515 731.573C174.241 743.79 168.572 777.723 177.235 795C182.293 805.086 191.666 811.838 202 816z"/>
<path style="fill:#8dddf4; stroke:none;" d="M785.667 724.333L786.333 724.667L785.667 724.333z"/>
<path style="fill:#8ee0ee; stroke:none;" d="M789 725L789 726L792 726L789 725z"/>
<path style="fill:#90d0e9; stroke:none;" d="M200.667 727.333L201.333 727.667L200.667 727.333z"/>
<path style="fill:#94dbf7; stroke:none;" d="M797 727L797 728L800 728L797 727z"/>
<path style="fill:#95dcfc; stroke:none;" d="M801.667 728.333L802.333 728.667L801.667 728.333z"/>
<path style="fill:#62b9e4; stroke:none;" d="M193.667 729.333L194.333 729.667L193.667 729.333z"/>
<path style="fill:#70d1f2; stroke:none;" d="M808.667 730.333L809.333 730.667L808.667 730.333z"/>
<path style="fill:#50c2f6; stroke:none;" d="M186.667 731.333L187.333 731.667L186.667 731.333z"/>
<path style="fill:#93dbf4; stroke:none;" d="M812.667 731.333L813.333 731.667L812.667 731.333z"/>
<path style="fill:#6fc6e4; stroke:none;" d="M182.667 732.333L183.333 732.667L182.667 732.333z"/>
<path style="fill:#9fe0f6; stroke:none;" d="M819.667 733.333L820.333 733.667L819.667 733.333z"/>
<path style="fill:#85d3f7; stroke:none;" d="M822.667 734.333L823.333 734.667L822.667 734.333z"/>
<path style="fill:#60c9f6; stroke:none;" d="M166.667 737.333L167.333 737.667L166.667 737.333z"/>
<path style="fill:#a1e7ff; stroke:none;" d="M832.667 737.333L833.333 737.667L832.667 737.333z"/>
<path style="fill:#94e0ff; stroke:none;" d="M846.667 742.333L847.333 742.667L846.667 742.333z"/>
<path style="fill:#495fb5; stroke:none;" d="M194 765L194 768L195 768L194 765z"/>
<path style="fill:#5458a2; stroke:none;" d="M192 774L192 779L193 779L192 774z"/>
<path style="fill:#485ba0; stroke:none;" d="M192 788L192 792L193 792L192 788z"/>
<path style="fill:#534fad; stroke:none;" d="M193 795L193 798L194 798L193 795z"/>
<path style="fill:#46c4ed; stroke:none;" d="M78 798L78 808L79 808L78 798M921 798L921 808L922 808L921 798z"/>
<path style="fill:#9fe1f7; stroke:none;" d="M79.3333 811.667L79.6667 812.333L79.3333 811.667z"/>
<path style="fill:#9ee0f6; stroke:none;" d="M920.333 811.667L920.667 812.333L920.333 811.667z"/>
<path style="fill:#9ce6ff; stroke:none;" d="M80.3333 814.667L80.6667 815.333L80.3333 814.667z"/>
<path style="fill:#a7e6ff; stroke:none;" d="M919.333 814.667L919.667 815.333L919.333 814.667z"/>
<path style="fill:#405dad; stroke:none;" d="M238.667 831.333L239.333 831.667L238.667 831.333z"/>
<path style="fill:#3952a4; stroke:none;" d="M576.667 843.333L577.333 843.667L576.667 843.333z"/>
<path style="fill:#3d52a1; stroke:none;" d="M565 846L565 847L568 847L565 846z"/>
<path style="fill:#3e53a4; stroke:none;" d="M557 848L557 849L560 849L557 848z"/>
<path style="fill:#594ba0; stroke:none;" d="M324 854L324 855L328 855L324 854z"/>
<path style="fill:#306bad; stroke:none;" d="M523 855L523 856L528 856L523 855z"/>
<path style="fill:#5b4d9c; stroke:none;" d="M342 857L342 858L347 858L342 857z"/>
<path style="fill:#4f55ad; stroke:none;" d="M356 859L356 860L360 860L356 859z"/>
<path style="fill:#465abd; stroke:none;" d="M364 860L364 861L371 861L364 860z"/>
<path style="fill:#3f5faa; stroke:none;" d="M384 862L384 863L392 863L384 862z"/>
<path style="fill:#455aa9; stroke:none;" d="M467 862L467 863L472 863L467 862z"/>
<path style="fill:#5051ab; stroke:none;" d="M443 863L443 864L459 864L443 863z"/>
<path style="fill:#76cfe1; stroke:none;" d="M150.667 864.333L151.333 864.667L150.667 864.333z"/>
<path style="fill:#88dbff; stroke:none;" d="M158.667 867.333L159.333 867.667L158.667 867.333z"/>
<path style="fill:#68d0ff; stroke:none;" d="M830.667 870.333L831.333 870.667L830.667 870.333z"/>
<path style="fill:#83defb; stroke:none;" d="M824.667 872.333L825.333 872.667L824.667 872.333z"/>
<path style="fill:#5dcaeb; stroke:none;" d="M177.667 873.333L178.333 873.667L177.667 873.333z"/>
<path style="fill:#8bdbf6; stroke:none;" d="M814.667 875.333L815.333 875.667L814.667 875.333z"/>
<path style="fill:#9fe4ff; stroke:none;" d="M190.667 877.333L191.333 877.667L190.667 877.333z"/>
<path style="fill:#9ee4ff; stroke:none;" d="M807.667 877.333L808.333 877.667L807.667 877.333z"/>
<path style="fill:#7bd4f4; stroke:none;" d="M198.667 879.333L199.333 879.667L198.667 879.333z"/>
<path style="fill:#69d5f2; stroke:none;" d="M202.667 880.333L203.333 880.667L202.667 880.333z"/>
<path style="fill:#77d5ef; stroke:none;" d="M206.667 881.333L207.333 881.667L206.667 881.333z"/>
<path style="fill:#a2e9fd; stroke:none;" d="M792.667 881.333L793.333 881.667L792.667 881.333z"/>
<path style="fill:#7bd6f3; stroke:none;" d="M210.667 882.333L211.333 882.667L210.667 882.333z"/>
<path style="fill:#84def8; stroke:none;" d="M214.667 883.333L215.333 883.667L214.667 883.333z"/>
<path style="fill:#86ddf8; stroke:none;" d="M783 883L783 884L786 884L783 883z"/>
<path style="fill:#95e0f7; stroke:none;" d="M779.667 884.333L780.333 884.667L779.667 884.333z"/>
<path style="fill:#74d0f7; stroke:none;" d="M774.667 885.333L775.333 885.667L774.667 885.333z"/>
<path style="fill:#a0e0fb; stroke:none;" d="M227 886L227 887L230 887L227 886z"/>
<path style="fill:#98def8; stroke:none;" d="M232.667 887.333L233.333 887.667L232.667 887.333M765 887L765 888L768 888L765 887z"/>
<path style="fill:#7dd8f7; stroke:none;" d="M237 888L237 889L240 889L237 888z"/>
<path style="fill:#7ad7f6; stroke:none;" d="M760.667 888.333L761.333 888.667L760.667 888.333z"/>
<path style="fill:#83d7f1; stroke:none;" d="M242 889L242 890L245 890L242 889z"/>
<path style="fill:#59caf2; stroke:none;" d="M754 889L754 890L757 890L754 889z"/>
<path style="fill:#60cfed; stroke:none;" d="M749 890L749 891L752 891L749 890z"/>
<path style="fill:#45c5f4; stroke:none;" d="M252 891L252 892L256 892L252 891z"/>
<path style="fill:#65d0f4; stroke:none;" d="M744.667 891.333L745.333 891.667L744.667 891.333z"/>
<path style="fill:#60c7f2; stroke:none;" d="M738 892L738 893L741 893L738 892z"/>
<path style="fill:#84d7f7; stroke:none;" d="M264.667 893.333L265.333 893.667L264.667 893.333z"/>
<path style="fill:#84d6fc; stroke:none;" d="M733 893L733 894L736 894L733 893z"/>
<path style="fill:#93e0fc; stroke:none;" d="M269 894L269 895L272 895L269 894z"/>
<path style="fill:#93dfff; stroke:none;" d="M728.667 894.333L729.333 894.667L728.667 894.333z"/>
<path style="fill:#a7e4ff; stroke:none;" d="M275 895L275 896L278 896L275 895z"/>
<path style="fill:#b9e7f7; stroke:none;" d="M714 896L714 897L718 897L714 896z"/>
<path style="fill:#a9e7fe; stroke:none;" d="M707 897L707 898L712 898L707 897z"/>
<path style="fill:#91d6ff; stroke:none;" d="M296.667 898.333L297.333 898.667L296.667 898.333z"/>
<path style="fill:#afe0ff; stroke:none;" d="M700 898L700 899L704 899L700 898z"/>
<path style="fill:#85d7ff; stroke:none;" d="M692 899L692 900L696 900L692 899z"/>
<path style="fill:#7cd3ff; stroke:none;" d="M684 900L684 901L688 901L684 900z"/>
<path style="fill:#7bd5ff; stroke:none;" d="M676 901L676 902L682 902L676 901z"/>
<path style="fill:#8bdaf9; stroke:none;" d="M668 902L668 903L672 903L668 902z"/>
<path style="fill:#45c5f2; stroke:none;" d="M336 903L336 904L341 904L336 903z"/>
<path style="fill:#40c5f2; stroke:none;" d="M347 904L347 905L352 905L347 904z"/>
<path style="fill:#93dcfd; stroke:none;" d="M354 905L354 906L360 906L354 905z"/>
<path style="fill:#52c7fd; stroke:none;" d="M636 905L636 906L643 906L636 905z"/>
<path style="fill:#92d8f2; stroke:none;" d="M366 906L366 907L371 907L366 906z"/>
<path style="fill:#91d9f2; stroke:none;" d="M627 906L627 907L632 907L627 906z"/>
<path style="fill:#84d8fc; stroke:none;" d="M379 907L379 908L384 908L379 907z"/>
<path style="fill:#57cdfb; stroke:none;" d="M611 907L611 908L619 908L611 907z"/>
<path style="fill:#6fd1f8; stroke:none;" d="M395 908L395 909L400 909L395 908z"/>
<path style="fill:#40c3f9; stroke:none;" d="M595 908L595 909L603 909L595 908z"/>
<path style="fill:#7bdaf0; stroke:none;" d="M411 909L411 910L416 910L411 909z"/>
<path style="fill:#3abdf1; stroke:none;" d="M416 909L416 910L424 910L416 909z"/>
<path style="fill:#54cdf8; stroke:none;" d="M579 909L579 910L587 910L579 909z"/>
<path style="fill:#c2e3f4; stroke:none;" d="M427 910L427 911L435 911L427 910z"/>
<path style="fill:#46c3f3; stroke:none;" d="M435 910L435 911L448 911L435 910M552 910L552 911L560 911L552 910z"/>
<path style="fill:#91d6f5; stroke:none;" d="M560 910L560 911L568 911L560 910z"/>
<path style="fill:#cbefff; stroke:none;" d="M453 911L453 912L461 912L453 911z"/>
<path style="fill:#78d2f7; stroke:none;" d="M461 911L461 912L492 912L461 911z"/>
<path style="fill:#43c3f0; stroke:none;" d="M492 911L492 912L508 912L492 911z"/>
<path style="fill:#78d2f7; stroke:none;" d="M508 911L508 912L536 912L508 911z"/>
<path style="fill:#c6ecff; stroke:none;" d="M536 911L536 912L544 912L536 911z"/>
<path style="fill:#111224; stroke:none;" d="M0 1000L0 1080L1000 1080L1000 1000L0 1000z"/>
<path style="fill:#2e303c; stroke:none;" d="M213 1026C211.8 1030.11 211.873 1032.94 215 1036L213 1026z"/>
<path style="fill:#9d9fac; stroke:none;" d="M214 1026L214 1027L218 1027L214 1026z"/>
<path style="fill:#151422; stroke:none;" d="M214 1027L214 1028L218 1029L215 1032L215 1036C221.2 1033.72 220.414 1028.02 214 1027z"/>
<path style="fill:#767885; stroke:none;" d="M218 1027L221 1029L218 1027z"/>
<path style="fill:#f9fafe; stroke:none;" d="M30 1028L39 1054C45.9201 1051.73 49.4156 1034.69 51 1028C45.1824 1031.98 42.552 1045.29 41 1052L40 1052C38.9894 1045.16 36.1391 1031.74 30 1028z"/>
<path style="fill:#a4a5aa; stroke:none;" d="M86 1028L86 1048L87 1048L86 1028z"/>
<path style="fill:#fdfeff; stroke:none;" d="M87 1028C87 1034.97 84.0935 1049.19 91 1053L88 1035L92 1035L92 1034L88 1034L87 1028z"/>
<path style="fill:#6a6c7b; stroke:none;" d="M88 1028L88 1034L89 1034L88 1028z"/>
<path style="fill:#b9b9c3; stroke:none;" d="M130.667 1028.33L131.333 1028.67L130.667 1028.33z"/>
<path style="fill:#fdfdfb; stroke:none;" d="M126 1049L126 1053C131.532 1053.7 150.696 1051.95 141.397 1041.65C138.975 1038.97 131.328 1038.77 130.631 1034.83C129.519 1028.54 139.973 1033.21 142 1034C140.705 1026.52 127.588 1026.09 126.427 1034.01C125.316 1041.59 134.98 1040.69 138.338 1044.7C141.909 1048.96 133.868 1051 131.025 1050.58C129.292 1050.33 127.632 1049.59 126 1049z"/>
<path style="fill:#5b5b67; stroke:none;" d="M146 1028L146 1048L147 1048L146 1028z"/>
<path style="fill:#fffeff; stroke:none;" d="M147 1028C147 1034.44 145.601 1042.74 147.434 1048.95C148.652 1053.07 152.425 1054.34 155 1051C149.188 1048.07 150 1042.79 150 1037L154 1037L154 1034L150 1034L150 1028L147 1028z"/>
<path style="fill:#e1e2e6; stroke:none;" d="M194 1028L194 1054L195 1054L194 1028z"/>
<path style="fill:#fefeff; stroke:none;" d="M195 1028L195 1054L197 1054L198 1045L200 1045C202.275 1049.81 204.385 1053.56 210 1054C204.244 1044.67 202.495 1043.29 209 1034L197 1041L197 1028L195 1028z"/>
<path style="fill:#97979f; stroke:none;" d="M197 1028L199 1041L197 1028z"/>
<path style="fill:#9a9ca9; stroke:none;" d="M211.333 1028.67L211.667 1029.33L211.333 1028.67z"/>
<path style="fill:#d6d9e2; stroke:none;" d="M214 1028L214 1034L215 1034L217 1033L217 1029L214 1028z"/>
<path style="fill:#767680; stroke:none;" d="M128 1029L129 1030L128 1029z"/>
<path style="fill:#0c0f18; stroke:none;" d="M215 1029L215 1031L217 1031L217 1029L215 1029z"/>
<path style="fill:#c0c0cc; stroke:none;" d="M217.333 1029.67L217.667 1030.33L217.333 1029.67z"/>
<path style="fill:#9b9dac; stroke:none;" d="M220 1029L220 1034L221 1034L220 1029z"/>
<path style="fill:#8c8f98; stroke:none;" d="M127 1030L128 1031L127 1030z"/>
<path style="fill:#5c5d6f; stroke:none;" d="M210 1030L214 1036L212 1030L210 1030z"/>
<path style="fill:#c4c1c8; stroke:none;" d="M136.667 1031.33L137.333 1031.67L136.667 1031.33z"/>
<path style="fill:#5c5c68; stroke:none;" d="M129 1033L129 1036L130 1036L129 1033z"/>
<path style="fill:#dfe1ed; stroke:none;" d="M217 1033L218 1034L217 1033z"/>
<path style="fill:#71717b; stroke:none;" d="M34 1034L35 1035L34 1034z"/>
<path style="fill:#f8f9fe; stroke:none;" d="M65 1051C58.7431 1052.3 53.9651 1051.92 52 1045L65 1045C64.7476 1034.56 52.3291 1029.56 50.2323 1042C48.8863 1049.98 59.1292 1058.71 65 1051z"/>
<path style="fill:#feffff; stroke:none;" d="M83 1053L83 1052C68.1056 1052.82 66.7728 1034.87 82 1036C69.9495 1027.78 63.2193 1050.37 75.0154 1053.56C77.6958 1054.29 80.3868 1053.62 83 1053z"/>
<path style="fill:#636571; stroke:none;" d="M80.6667 1034.33L81.3333 1034.67L80.6667 1034.33z"/>
<path style="fill:#acadaf; stroke:none;" d="M99.6667 1034.33L100.333 1034.67L99.6667 1034.33z"/>
<path style="fill:#f9fafc; stroke:none;" d="M101.004 1034.59C89.8505 1037.48 93.4938 1056.13 104.995 1053.53C115.992 1051.03 112.476 1031.62 101.004 1034.59z"/>
<path style="fill:#feffff; stroke:none;" d="M115 1034L115 1054L116 1054C116 1043.8 117.547 1041.82 123 1034L115 1034z"/>
<path style="fill:#c6c8c7; stroke:none;" d="M116 1034L118 1037L116 1034z"/>
<path style="fill:#767779; stroke:none;" d="M120 1034L121 1035L120 1034z"/>
<path style="fill:#b5b5bf; stroke:none;" d="M154 1034L154 1037L155 1037L154 1034z"/>
<path style="fill:#fffffd; stroke:none;" d="M162.044 1034.86C152.079 1039.02 157.61 1057.92 168.906 1052.99C178.895 1048.63 173.216 1030.2 162.044 1034.86z"/>
<path style="fill:#bcbbc0; stroke:none;" d="M182.667 1034.33L183.333 1034.67L182.667 1034.33z"/>
<path style="fill:#fffffb; stroke:none;" d="M191 1053L190 1050C184.472 1051.01 177.238 1046.44 181.757 1040.23C184.243 1036.81 188.669 1038.22 191 1035C172.896 1031.79 173.621 1056.99 191 1053z"/>
<path style="fill:#818287; stroke:none;" d="M188.667 1034.33L189.333 1034.67L188.667 1034.33z"/>
<path style="fill:#aaacbb; stroke:none;" d="M219 1034L220 1035L219 1034z"/>
<path style="fill:#7d7d85; stroke:none;" d="M53 1035L54 1036L53 1035z"/>
<path style="fill:#c1c2c6; stroke:none;" d="M76 1035L76 1036L79 1036L76 1035z"/>
<path style="fill:#4d4f5b; stroke:none;" d="M82 1035L81 1037L83 1037L82 1035z"/>
<path style="fill:#d2d2de; stroke:none;" d="M88 1035L88 1036L92 1036L88 1035z"/>
<path style="fill:#a5a4ac; stroke:none;" d="M160 1035L161 1036L160 1035z"/>
<path style="fill:#9a9aa2; stroke:none;" d="M170 1035L171 1036L170 1035z"/>
<path style="fill:#6f7279; stroke:none;" d="M203 1035L204 1036L203 1035z"/>
<path style="fill:#5b5d6c; stroke:none;" d="M217.333 1035.67L217.667 1036.33L217.333 1035.67z"/>
<path style="fill:#b3b5c4; stroke:none;" d="M218 1035L219 1036L218 1035z"/>
<path style="fill:#8b8b93; stroke:none;" d="M52 1036L53 1037L52 1036z"/>
<path style="fill:#141325; stroke:none;" d="M52 1043L63 1043C62.0174 1034.39 53.6481 1034.93 52 1043z"/>
<path style="fill:#7d7e82; stroke:none;" d="M60 1036L61 1037L60 1036z"/>
<path style="fill:#6b6a7a; stroke:none;" d="M88 1036L88 1049L89 1049L88 1036z"/>
<path style="fill:#121121; stroke:none;" d="M100.225 1036.75C92.5984 1040.09 96.9075 1055.14 105.786 1051.25C113.584 1047.84 108.717 1033.03 100.225 1036.75z"/>
<path style="fill:#83838b; stroke:none;" d="M120 1036L121 1037L120 1036z"/>
<path style="fill:#76777c; stroke:none;" d="M130 1036L131 1037L130 1036z"/>
<path style="fill:#868692; stroke:none;" d="M179 1036L180 1037L179 1036z"/>
<path style="fill:#74777e; stroke:none;" d="M202 1036L203 1037L202 1036z"/>
<path style="fill:#9c9ead; stroke:none;" d="M214 1036L214 1037L217 1037L214 1036z"/>
<path style="fill:#9c9da2; stroke:none;" d="M72 1037L73 1038L72 1037z"/>
<path style="fill:#727480; stroke:none;" d="M107 1037L108 1038L107 1037z"/>
<path style="fill:#95969a; stroke:none;" d="M126 1037L127 1038L126 1037z"/>
<path style="fill:#101123; stroke:none;" d="M163.278 1038.05C157.61 1041.34 161.004 1053.85 167.722 1049.95C173.296 1046.72 169.886 1034.21 163.278 1038.05z"/>
<path style="fill:#a4a4ac; stroke:none;" d="M172 1037L173 1038L172 1037z"/>
<path style="fill:#3d3d45; stroke:none;" d="M184 1037L184 1038L189 1038L184 1037z"/>
<path style="fill:#757581; stroke:none;" d="M190 1037L191 1038L190 1037z"/>
<path style="fill:#777781; stroke:none;" d="M201 1037L202 1038L201 1037z"/>
<path style="fill:#898a8e; stroke:none;" d="M47 1038L48 1039L47 1038z"/>
<path style="fill:#797888; stroke:none;" d="M64 1038L65 1039L64 1038z"/>
<path style="fill:#9b9ca1; stroke:none;" d="M97 1038L98 1039L97 1038z"/>
<path style="fill:#9c9da1; stroke:none;" d="M108 1038L109 1039L108 1038z"/>
<path style="fill:#a0a0ac; stroke:none;" d="M117 1038L118 1039L117 1038z"/>
<path style="fill:#4c4f58; stroke:none;" d="M135.667 1038.33L136.333 1038.67L135.667 1038.33z"/>
<path style="fill:#7e7b84; stroke:none;" d="M200 1038L201 1039L200 1038z"/>
<path style="fill:#d1d2d4; stroke:none;" d="M116 1039L116 1054L117 1054L116 1039z"/>
<path style="fill:#8d8f9b; stroke:none;" d="M138 1039L139 1040L138 1039z"/>
<path style="fill:#c3c4c9; stroke:none;" d="M177.333 1039.67L177.667 1040.33L177.333 1039.67z"/>
<path style="fill:#7d7c81; stroke:none;" d="M181 1039L182 1040L181 1039z"/>
<path style="fill:#8c8e9d; stroke:none;" d="M199 1039L200 1040L199 1039z"/>
<path style="fill:#f0f2f1; stroke:none;" d="M720 1039L725 1053L727 1053L732 1039C728.067 1041.4 727.384 1045.61 727 1050L720 1039z"/>
<path style="fill:#f7f8fc; stroke:none;" d="M787 1051L780 1050C781.795 1052.77 788.802 1054.27 788.079 1049C787.664 1045.97 783.434 1043.7 782 1041L788 1042C786.33 1039.44 780.223 1038.02 780.921 1042.95C781.338 1045.9 785.605 1048.3 787 1051z"/>
<path style="fill:#f3f5f4; stroke:none;" d="M819 1039L819 1053L821 1053L821 1048L827 1053L825 1044L820 1046L819 1039z"/>
<path style="fill:#d8d9db; stroke:none;" d="M820 1039L820 1046L821 1046L820 1039z"/>
<path style="fill:#f4f4fc; stroke:none;" d="M877 1039L873 1054L874 1054L879 1039L877 1039z"/>
<path style="fill:#f6f7fb; stroke:none;" d="M881 1042C884.58 1041.6 886.194 1041.8 888 1045L881 1053L891 1053L891 1052L883 1052C884.85 1049.57 888.541 1047.04 889.248 1043.98C890.635 1037.99 883.454 1039.51 881 1042z"/>
<path style="fill:#81838f; stroke:none;" d="M897 1039L898 1040L897 1039z"/>
<path style="fill:#fffffd; stroke:none;" d="M898 1039L898 1048L892 1048L892 1049L898 1049L898 1053L901 1048L898 1039z"/>
<path style="fill:#d9dbd8; stroke:none;" d="M899 1039L899 1048L900 1048L899 1039z"/>
<path style="fill:#828490; stroke:none;" d="M909 1039L910 1040L909 1039z"/>
<path style="fill:#feffff; stroke:none;" d="M910 1039L904 1049L910 1049L910 1053L912 1053L913 1048L910 1039z"/>
<path style="fill:#dcdbd7; stroke:none;" d="M911 1039L911 1048L912 1048L911 1039z"/>
<path style="fill:#81838f; stroke:none;" d="M921 1039L922 1040L921 1039z"/>
<path style="fill:#fffffd; stroke:none;" d="M922 1039L922 1048L916 1048L916 1049L922 1049L922 1053L925 1048L922 1039z"/>
<path style="fill:#d9dbd8; stroke:none;" d="M923 1039L923 1048L924 1048L923 1039z"/>
<path style="fill:#fdfeff; stroke:none;" d="M935 1047C940.878 1032.03 920.621 1045.86 930.322 1051.95C933.9 1054.2 938.27 1050.02 935 1047z"/>
<path style="fill:#fcfdff; stroke:none;" d="M940 1042C943.58 1041.6 945.194 1041.8 947 1045L940 1053L950 1053L950 1052L942 1052C943.85 1049.57 947.541 1047.04 948.248 1043.98C949.635 1037.99 942.454 1039.51 940 1042z"/>
<path style="fill:#4d4f5e; stroke:none;" d="M951.333 1039.67L951.667 1040.33L951.333 1039.67z"/>
<path style="fill:#f9fafc; stroke:none;" d="M952 1039L952 1040L958 1042L959 1039L952 1039z"/>
<path style="fill:#65696a; stroke:none;" d="M959.333 1039.67L959.667 1040.33L959.333 1039.67z"/>
<path style="fill:#fafafa; stroke:none;" d="M964 1045L969 1040C963.043 1038.79 959.858 1048.99 965.225 1051.93C970.79 1054.97 973.811 1045.32 964 1045z"/>
<path style="fill:#d5d5dd; stroke:none;" d="M968 1041L971 1039L968 1041z"/>
<path style="fill:#a3a2b0; stroke:none;" d="M34 1040L35 1041L34 1040z"/>
<path style="fill:#b3b4b6; stroke:none;" d="M63 1040C60.5204 1043.82 56.1924 1043 52 1043L52 1044L64 1044L63 1040z"/>
<path style="fill:#acabb3; stroke:none;" d="M68 1040L68 1047L69 1047L68 1040z"/>
<path style="fill:#5a5c69; stroke:none;" d="M96.3333 1040.67L96.6667 1041.33L96.3333 1040.67z"/>
<path style="fill:#565662; stroke:none;" d="M109.333 1040.67L109.667 1041.33L109.333 1040.67z"/>
<path style="fill:#b8b8ba; stroke:none;" d="M111.333 1040.67L111.667 1041.33L111.333 1040.67z"/>
<path style="fill:#72707d; stroke:none;" d="M129 1040L130 1041L129 1040z"/>
<path style="fill:#8c8d8f; stroke:none;" d="M140 1040L141 1041L140 1040z"/>
<path style="fill:#545663; stroke:none;" d="M160.333 1040.67L160.667 1041.33L160.333 1040.67z"/>
<path style="fill:#61616b; stroke:none;" d="M170.333 1040.67L170.667 1041.33L170.333 1040.67z"/>
<path style="fill:#7d8087; stroke:none;" d="M788 1040L789 1041L788 1040z"/>
<path style="fill:#cecdd3; stroke:none;" d="M952 1040L952 1041L956 1041L956 1045C958.028 1041.32 955.532 1040.28 952 1040z"/>
<path style="fill:#828282; stroke:none;" d="M964 1040L965 1041L964 1040z"/>
<path style="fill:#838488; stroke:none;" d="M44 1041L45 1042L44 1041z"/>
<path style="fill:#767583; stroke:none;" d="M65 1041L65 1045L66 1045L65 1041z"/>
<path style="fill:#53535f; stroke:none;" d="M70 1041L70 1047L71 1047L70 1041z"/>
<path style="fill:#82828c; stroke:none;" d="M156 1041L156 1046L157 1046L156 1041z"/>
<path style="fill:#7f7f87; stroke:none;" d="M174 1041L174 1046L175 1046L174 1041z"/>
<path style="fill:#58575f; stroke:none;" d="M180 1041L180 1046L181 1046L180 1041z"/>
<path style="fill:#707176; stroke:none;" d="M755.667 1041.33L756.333 1041.67L755.667 1041.33z"/>
<path style="fill:#919199; stroke:none;" d="M782 1041L783 1042L782 1041z"/>
<path style="fill:#72727e; stroke:none;" d="M791.667 1041.33L792.333 1041.67L791.667 1041.33z"/>
<path style="fill:#68696e; stroke:none;" d="M883 1041L884 1042L883 1041z"/>
<path style="fill:#e1e0e6; stroke:none;" d="M896 1041L893 1048L894 1048L898 1041L896 1041z"/>
<path style="fill:#d9dde0; stroke:none;" d="M920 1041L917 1048L918 1048L922 1041L920 1041z"/>
<path style="fill:#13102b; stroke:none;" d="M931 1041L935 1045L931 1041z"/>
<path style="fill:#7f7f87; stroke:none;" d="M934 1041L935 1042L934 1041z"/>
<path style="fill:#8e8e98; stroke:none;" d="M958 1041L959 1042L958 1041z"/>
<path style="fill:#abacb1; stroke:none;" d="M723.333 1042.67L723.667 1043.33L723.333 1042.67z"/>
<path style="fill:#fcfdff; stroke:none;" d="M755 1042C754.486 1046.63 754.658 1050.61 759 1053L759 1045L759 1044L757 1042L755 1042z"/>
<path style="fill:#fafbff; stroke:none;" d="M791 1042C790.486 1046.63 790.658 1050.61 795 1053L795 1045L795 1044L793 1042L791 1042z"/>
<path style="fill:#5d5d69; stroke:none;" d="M897 1042L898 1043L897 1042z"/>
<path style="fill:#141321; stroke:none;" d="M909 1042L906 1048L910 1048L909 1042z"/>
<path style="fill:#5d5d69; stroke:none;" d="M921 1042L922 1043L921 1042z"/>
<path style="fill:#95959d; stroke:none;" d="M35 1043L36 1044L35 1043z"/>
<path style="fill:#868692; stroke:none;" d="M202 1043L203 1044L202 1043z"/>
<path style="fill:#fbfbfb; stroke:none;" d="M739 1053L739 1052L735 1048L742 1048C738.865 1037.67 727.505 1049.67 739 1053z"/>
<path style="fill:#fbfbff; stroke:none;" d="M753 1052L753 1051C746.101 1050.47 745.938 1045.2 753 1045C744.419 1039.28 741.296 1055.08 753 1052z"/>
<path style="fill:#7e7e88; stroke:none;" d="M751 1043L752 1044L751 1043z"/>
<path style="fill:#868692; stroke:none;" d="M754 1043L755 1044L754 1043z"/>
<path style="fill:#6c6d7f; stroke:none;" d="M757.667 1043.33L758.333 1043.67L757.667 1043.33z"/>
<path style="fill:#f5f6fb; stroke:none;" d="M764.144 1044.09C759.187 1046.59 762.939 1054.56 767.683 1051.91C771.888 1049.57 768.995 1041.64 764.144 1044.09z"/>
<path style="fill:#fefffb; stroke:none;" d="M773 1043L773 1053L774 1053L778 1043L773 1043z"/>
<path style="fill:#84848c; stroke:none;" d="M790 1043L791 1044L790 1043z"/>
<path style="fill:#6b6c7e; stroke:none;" d="M793.667 1043.33L794.333 1043.67L793.667 1043.33z"/>
<path style="fill:#fcfefb; stroke:none;" d="M800.148 1044.09C795.106 1046.59 798.879 1054.39 803.852 1051.91C808.894 1049.41 805.121 1041.61 800.148 1044.09z"/>
<path style="fill:#f6fbf7; stroke:none;" d="M818 1052L818 1051C811.05 1050.47 811.05 1045.53 818 1045C809.419 1039.28 806.296 1055.08 818 1052z"/>
<path style="fill:#787b82; stroke:none;" d="M816 1043L817 1044L816 1043z"/>
<path style="fill:#c5c8cf; stroke:none;" d="M824 1043L825 1045L826 1045L827 1043L824 1043z"/>
<path style="fill:#f8f8ff; stroke:none;" d="M840 1053L840 1052C835.489 1048.11 837.681 1045.41 843 1045C835.924 1040.28 831.127 1050.43 840 1053z"/>
<path style="fill:#7c7e8a; stroke:none;" d="M841 1043L842 1044L841 1043z"/>
<path style="fill:#f6f7fb; stroke:none;" d="M847.228 1043.8C842.288 1045.6 844.976 1053.44 849.946 1052.25C855.971 1050.81 852.85 1041.75 847.228 1043.8z"/>
<path style="fill:#fffeff; stroke:none;" d="M856 1043L856 1053L858 1053L859 1045L856 1043z"/>
<path style="fill:#cfcfcf; stroke:none;" d="M857 1043L862 1045L862 1044L857 1043z"/>
<path style="fill:#7d7b88; stroke:none;" d="M859 1043L860 1044L859 1043z"/>
<path style="fill:#fcfefd; stroke:none;" d="M860 1043L860 1044L863 1053L864 1053C864.443 1049.03 865.421 1046.88 869 1045L869 1053L870 1053C869.997 1049.41 870.451 1041.28 865 1045L864 1045L860 1043z"/>
<path style="fill:#74747c; stroke:none;" d="M863 1043L864 1044L863 1043z"/>
<path style="fill:#888b94; stroke:none;" d="M869 1043L870 1044L869 1043z"/>
<path style="fill:#5d5d67; stroke:none;" d="M877.333 1043.67L877.667 1044.33L877.333 1043.67z"/>
<path style="fill:#151320; stroke:none;" d="M897 1043L894 1048L898 1048L897 1043z"/>
<path style="fill:#0f111d; stroke:none;" d="M921 1043L918 1048L922 1048L921 1043z"/>
<path style="fill:#fcfbff; stroke:none;" d="M955 1043L954 1046C958.093 1048.42 955.779 1050.39 952 1051L952 1052C960.097 1053.97 960.388 1047.27 955 1043z"/>
<path style="fill:#b9b9c3; stroke:none;" d="M962 1043L962 1046L963 1046L962 1043z"/>
<path style="fill:#8a8a94; stroke:none;" d="M139 1044L140 1045L139 1044z"/>
<path style="fill:#b1b0b6; stroke:none;" d="M143 1044L143 1048L144 1048L143 1044z"/>
<path style="fill:#a4a5aa; stroke:none;" d="M737.667 1044.33L738.333 1044.67L737.667 1044.33z"/>
<path style="fill:#9e9eaa; stroke:none;" d="M745 1044L746 1045L745 1044z"/>
<path style="fill:#aaabaf; stroke:none;" d="M748.667 1044.33L749.333 1044.67L748.667 1044.33z"/>
<path style="fill:#9c9fa4; stroke:none;" d="M762 1044L763 1045L762 1044z"/>
<path style="fill:#8c8d91; stroke:none;" d="M769 1044L770 1045L769 1044z"/>
<path style="fill:#797a7f; stroke:none;" d="M780 1044L781 1045L780 1044z"/>
<path style="fill:#838489; stroke:none;" d="M783 1044L784 1045L783 1044z"/>
<path style="fill:#9797a1; stroke:none;" d="M798 1044L799 1045L798 1044z"/>
<path style="fill:#babac6; stroke:none;" d="M801.667 1044.33L802.333 1044.67L801.667 1044.33z"/>
<path style="fill:#83868b; stroke:none;" d="M805 1044L806 1045L805 1044z"/>
<path style="fill:#8c8d92; stroke:none;" d="M810 1044L811 1045L810 1044z"/>
<path style="fill:#8f9299; stroke:none;" d="M835 1044L836 1045L835 1044z"/>
<path style="fill:#b9bcc3; stroke:none;" d="M848.667 1044.33L849.333 1044.67L848.667 1044.33z"/>
<path style="fill:#82858e; stroke:none;" d="M852 1044L853 1045L852 1044z"/>
<path style="fill:#a8a8b0; stroke:none;" d="M875.333 1044.67L875.667 1045.33L875.333 1044.67z"/>
<path style="fill:#9497a0; stroke:none;" d="M887 1044L888 1045L887 1044z"/>
<path style="fill:#5b5b67; stroke:none;" d="M929.333 1044.67L929.667 1045.33L929.333 1044.67z"/>
<path style="fill:#a3a3ab; stroke:none;" d="M946 1044L947 1045L946 1044z"/>
<path style="fill:#4a4b50; stroke:none;" d="M964.667 1044.33L965.333 1044.67L964.667 1044.33z"/>
<path style="fill:#92959c; stroke:none;" d="M966 1044L966 1045L969 1045L966 1044z"/>
<path style="fill:#4c4f58; stroke:none;" d="M722.333 1045.67L722.667 1046.33L722.333 1045.67z"/>
<path style="fill:#a7a8ac; stroke:none;" d="M724.333 1045.67L724.667 1046.33L724.333 1045.67z"/>
<path style="fill:#85858f; stroke:none;" d="M733 1045L734 1046L733 1045z"/>
<path style="fill:#727179; stroke:none;" d="M735 1045C736.768 1047.03 738.231 1047.03 740 1045L735 1045z"/>
<path style="fill:#15151d; stroke:none;" d="M736 1045L736 1046L739 1046L736 1045z"/>
<path style="fill:#141625; stroke:none;" d="M764.603 1046.08C762.132 1047.87 764.918 1051.71 767.397 1049.92C769.868 1048.13 767.082 1044.29 764.603 1046.08z"/>
<path style="fill:#797a7f; stroke:none;" d="M781 1045L782 1046L781 1045z"/>
<path style="fill:#131429; stroke:none;" d="M800.603 1046.08C798.132 1047.87 800.918 1051.71 803.397 1049.92C805.868 1048.13 803.082 1044.29 800.603 1046.08z"/>
<path style="fill:#141321; stroke:none;" d="M847.603 1046.08C845.132 1047.87 847.918 1051.71 850.397 1049.92C852.868 1048.13 850.082 1044.29 847.603 1046.08z"/>
<path style="fill:#dadbdf; stroke:none;" d="M870 1045L870 1053L871 1053L870 1045z"/>
<path style="fill:#b2b4b1; stroke:none;" d="M935.333 1045.67L935.667 1046.33L935.333 1045.67z"/>
<path style="fill:#828388; stroke:none;" d="M970 1045L971 1046L970 1045z"/>
<path style="fill:#8b8d99; stroke:none;" d="M96.3333 1046.67L96.6667 1047.33L96.3333 1046.67z"/>
<path style="fill:#a4a4ae; stroke:none;" d="M170.333 1046.67L170.667 1047.33L170.333 1046.67z"/>
<path style="fill:#9797a3; stroke:none;" d="M197 1046L197 1054L198 1054L197 1046z"/>
<path style="fill:#8d8e92; stroke:none;" d="M200 1046L201 1047L200 1046z"/>
<path style="fill:#d3d4d8; stroke:none;" d="M770 1046L770 1050L771 1050L770 1046z"/>
<path style="fill:#8c8c94; stroke:none;" d="M783 1046L784 1047L783 1046z"/>
<path style="fill:#8c8c96; stroke:none;" d="M787 1046L788 1047L787 1046z"/>
<path style="fill:#161523; stroke:none;" d="M931 1046C930.453 1049.55 931.453 1050.55 935 1050L935 1048L931 1046z"/>
<path style="fill:#9999a1; stroke:none;" d="M932 1046L933 1047L932 1046z"/>
<path style="fill:#141126; stroke:none;" d="M964 1047C966.994 1054.43 972.345 1045.1 964 1047z"/>
<path style="fill:#92929e; stroke:none;" d="M109 1047L110 1048L109 1047z"/>
<path style="fill:#7d7d85; stroke:none;" d="M205 1047L206 1048L205 1047z"/>
<path style="fill:#71717b; stroke:none;" d="M785 1047L786 1048L785 1047z"/>
<path style="fill:#727480; stroke:none;" d="M788 1047L789 1048L788 1047z"/>
<path style="fill:#72717f; stroke:none;" d="M883 1047L884 1048L883 1047z"/>
<path style="fill:#747780; stroke:none;" d="M892 1047L893 1048L892 1047z"/>
<path style="fill:#7a7a86; stroke:none;" d="M904 1047L905 1048L904 1047z"/>
<path style="fill:#797c85; stroke:none;" d="M916 1047L917 1048L916 1047z"/>
<path style="fill:#757881; stroke:none;" d="M942 1047L943 1048L942 1047z"/>
<path style="fill:#72757c; stroke:none;" d="M50 1048L51 1049L50 1048z"/>
<path style="fill:#a0a4a5; stroke:none;" d="M52 1048L53 1049L52 1048z"/>
<path style="fill:#595961; stroke:none;" d="M86.3333 1048.67L86.6667 1049.33L86.3333 1048.67z"/>
<path style="fill:#7a7b80; stroke:none;" d="M139 1048L140 1049L139 1048z"/>
<path style="fill:#838287; stroke:none;" d="M181 1048L182 1049L181 1048z"/>
<path style="fill:#5e5c5f; stroke:none;" d="M725.667 1048.33L726.333 1048.67L725.667 1048.33z"/>
<path style="fill:#d8dad5; stroke:none;" d="M774 1048L774 1053L775 1053L774 1048z"/>
<path style="fill:#858591; stroke:none;" d="M822 1048L823 1049L822 1048z"/>
<path style="fill:#8e9291; stroke:none;" d="M824 1048L825 1049L824 1048z"/>
<path style="fill:#d6d7dc; stroke:none;" d="M864 1048L864 1053L865 1053L864 1048z"/>
<path style="fill:#8a8b8d; stroke:none;" d="M882 1048L883 1049L882 1048z"/>
<path style="fill:#8f8f91; stroke:none;" d="M941 1048L942 1049L941 1048z"/>
<path style="fill:#656776; stroke:none;" d="M944 1048L945 1049L944 1048z"/>
<path style="fill:#53535b; stroke:none;" d="M43.3333 1049.67L43.6667 1050.33L43.3333 1049.67z"/>
<path style="fill:#6b6b75; stroke:none;" d="M69 1049L70 1050L69 1049z"/>
<path style="fill:#8c8c94; stroke:none;" d="M97 1049L98 1050L97 1049z"/>
<path style="fill:#919297; stroke:none;" d="M108 1049L109 1050L108 1049z"/>
<path style="fill:#7b7c81; stroke:none;" d="M138 1049L139 1050L138 1049z"/>
<path style="fill:#7f7e86; stroke:none;" d="M202 1049L203 1050L202 1049z"/>
<path style="fill:#ababad; stroke:none;" d="M725.667 1049.33L726.333 1049.67L725.667 1049.33z"/>
<path style="fill:#9a9aa4; stroke:none;" d="M892 1049L892 1050L898 1050L892 1049z"/>
<path style="fill:#9999a1; stroke:none;" d="M904 1049L904 1050L910 1050L904 1049z"/>
<path style="fill:#848391; stroke:none;" d="M912 1049L913 1050L912 1049z"/>
<path style="fill:#98999e; stroke:none;" d="M916 1049L916 1050L922 1050L916 1049z"/>
<path style="fill:#9797a1; stroke:none;" d="M962 1049L963 1050L962 1049z"/>
<path style="fill:#83868d; stroke:none;" d="M964 1049L965 1050L964 1049z"/>
<path style="fill:#c3c3cb; stroke:none;" d="M125 1050L125 1053L126 1053L125 1050z"/>
<path style="fill:#75757f; stroke:none;" d="M129.667 1050.33L130.333 1050.67L129.667 1050.33z"/>
<path style="fill:#858591; stroke:none;" d="M147 1050L148 1051L147 1050z"/>
<path style="fill:#a6a6ae; stroke:none;" d="M158 1050L159 1051L158 1050z"/>
<path style="fill:#9f9fa7; stroke:none;" d="M172 1050L173 1051L172 1050z"/>
<path style="fill:#c3c2c8; stroke:none;" d="M190.333 1050.67L190.667 1051.33L190.333 1050.67z"/>
<path style="fill:#a1a0a5; stroke:none;" d="M207 1050L208 1051L207 1050z"/>
<path style="fill:#727483; stroke:none;" d="M751.667 1050.33L752.333 1050.67L751.667 1050.33z"/>
<path style="fill:#9fa0a2; stroke:none;" d="M786 1050L787 1051L786 1050z"/>
<path style="fill:#706f7f; stroke:none;" d="M816.667 1050.33L817.333 1050.67L816.667 1050.33z"/>
<path style="fill:#767585; stroke:none;" d="M841.667 1050.33L842.333 1050.67L841.667 1050.33z"/>
<path style="fill:#9b9ca0; stroke:none;" d="M934 1050L935 1051L934 1050z"/>
<path style="fill:#a9a9b1; stroke:none;" d="M951 1050L951 1052L953 1050L951 1050z"/>
<path style="fill:#7f7e83; stroke:none;" d="M959 1050L960 1051L959 1050z"/>
<path style="fill:#787880; stroke:none;" d="M971 1050L972 1051L971 1050z"/>
<path style="fill:#848587; stroke:none;" d="M40 1051L41 1052L40 1051z"/>
<path style="fill:#8c8e9a; stroke:none;" d="M52 1051L53 1052L52 1051z"/>
<path style="fill:#7d8182; stroke:none;" d="M55 1051L56 1052L55 1051z"/>
<path style="fill:#767982; stroke:none;" d="M81.6667 1051.33L82.3333 1051.67L81.6667 1051.33z"/>
<path style="fill:#81818b; stroke:none;" d="M87 1051L88 1052L87 1051z"/>
<path style="fill:#97989c; stroke:none;" d="M99 1051L100 1052L99 1051z"/>
<path style="fill:#9f9fa9; stroke:none;" d="M106 1051L107 1052L106 1051z"/>
<path style="fill:#80808c; stroke:none;" d="M179 1051L180 1052L179 1051z"/>
<path style="fill:#8d8d99; stroke:none;" d="M734 1051L735 1052L734 1051z"/>
<path style="fill:#ceced6; stroke:none;" d="M737 1051L737 1052L742 1052L737 1051z"/>
<path style="fill:#9b9ba7; stroke:none;" d="M745 1051L746 1052L745 1051z"/>
<path style="fill:#7c7f86; stroke:none;" d="M755 1051L756 1052L755 1051z"/>
<path style="fill:#5c5e6a; stroke:none;" d="M759.333 1051.67L759.667 1052.33L759.333 1051.67z"/>
<path style="fill:#919499; stroke:none;" d="M762 1051L763 1052L762 1051z"/>
<path style="fill:#7e7f83; stroke:none;" d="M769 1051L770 1052L769 1051z"/>
<path style="fill:#838290; stroke:none;" d="M791 1051L792 1052L791 1051z"/>
<path style="fill:#595b68; stroke:none;" d="M795.333 1051.67L795.667 1052.33L795.333 1051.67z"/>
<path style="fill:#95959f; stroke:none;" d="M798 1051L799 1052L798 1051z"/>
<path style="fill:#b9b9c5; stroke:none;" d="M801.667 1051.33L802.333 1051.67L801.667 1051.33z"/>
<path style="fill:#7c7f84; stroke:none;" d="M805 1051L806 1052L805 1051z"/>
<path style="fill:#8f9297; stroke:none;" d="M810 1051L811 1052L810 1051z"/>
<path style="fill:#ecedf2; stroke:none;" d="M829 1051L829 1053L831 1053L831 1051L829 1051z"/>
<path style="fill:#93969d; stroke:none;" d="M835 1051L836 1052L835 1051z"/>
<path style="fill:#ced1d8; stroke:none;" d="M838 1051L838 1052L843 1052L838 1051z"/>
<path style="fill:#94959a; stroke:none;" d="M845 1051L846 1052L845 1051z"/>
<path style="fill:#bcbcc4; stroke:none;" d="M848.667 1051.33L849.333 1051.67L848.667 1051.33z"/>
<path style="fill:#7b7e87; stroke:none;" d="M852 1051L853 1052L852 1051z"/>
<path style="fill:#a5a5a5; stroke:none;" d="M883 1051L883 1052L891 1052L883 1051z"/>
<path style="fill:#a8a9ad; stroke:none;" d="M942 1051L942 1052L950 1052L942 1051z"/>
<path style="fill:#b7b9b8; stroke:none;" d="M58.6667 1052.33L59.3333 1052.67L58.6667 1052.33z"/>
<path style="fill:#b4b5ba; stroke:none;" d="M76 1052L76 1053L79 1053L76 1052z"/>
<path style="fill:#a6a5ab; stroke:none;" d="M88 1052L89 1053L88 1052z"/>
<path style="fill:#bab9c7; stroke:none;" d="M91 1052L90 1054L92 1054L91 1052z"/>
<path style="fill:#a0a0aa; stroke:none;" d="M154 1052L155 1053L154 1052z"/>
<path style="fill:#9d9ca2; stroke:none;" d="M160 1052L161 1053L160 1052z"/>
<path style="fill:#92929a; stroke:none;" d="M170 1052L171 1053L170 1052z"/>
<path style="fill:#777781; stroke:none;" d="M740 1052L741 1053L740 1052z"/>
<path style="fill:#717479; stroke:none;" d="M756 1052L757 1053L756 1052z"/>
<path style="fill:#767980; stroke:none;" d="M792 1052L793 1053L792 1052z"/>
<path style="fill:#83838d; stroke:none;" d="M957 1052L958 1053L957 1052z"/>
<path style="fill:#909196; stroke:none;" d="M969 1052L970 1053L969 1052z"/>
<path style="fill:#bcbdc1; stroke:none;" d="M55.6667 1053.33L56.3333 1053.67L55.6667 1053.33z"/>
<path style="fill:#515256; stroke:none;" d="M62.6667 1053.33L63.3333 1053.67L62.6667 1053.33z"/>
<path style="fill:#b4b5b9; stroke:none;" d="M99.6667 1053.33L100.333 1053.67L99.6667 1053.33z"/>
<path style="fill:#706f7d; stroke:none;" d="M106 1053L107 1054L106 1053z"/>
<path style="fill:#a3a4a8; stroke:none;" d="M128.667 1053.33L129.333 1053.67L128.667 1053.33z"/>
<path style="fill:#8a8a94; stroke:none;" d="M136.667 1053.33L137.333 1053.67L136.667 1053.33z"/>
<path style="fill:#a6a6ae; stroke:none;" d="M150.667 1053.33L151.333 1053.67L150.667 1053.33z"/>
<path style="fill:#97969c; stroke:none;" d="M168 1053L169 1054L168 1053z"/>
<path style="fill:#bab9be; stroke:none;" d="M182.667 1053.33L183.333 1053.67L182.667 1053.33z"/>
</svg>
